<mxfile host="app.diagrams.net" modified="2022-06-21T22:05:26.305Z" agent="5.0 (Windows)" etag="eumw-ItgvyyNbE-FZIPn" version="20.0.1" type="github">
  <diagram id="8ypXO72UwPJKqhxN72VT" name="Page-1">
    <mxGraphModel dx="1950" dy="852" grid="1" gridSize="10" guides="1" tooltips="1" connect="1" arrows="1" fold="1" page="0" pageScale="1" pageWidth="827" pageHeight="1169" math="0" shadow="0">
      <root>
        <mxCell id="0" />
        <mxCell id="1" parent="0" />
        <mxCell id="FKuJMAErxG1GOTlVvf3b-64" value="" style="endArrow=classic;html=1;rounded=0;fillColor=#ffe6cc;strokeColor=#d79b00;" parent="1" edge="1">
          <mxGeometry width="50" height="50" relative="1" as="geometry">
            <mxPoint x="555" y="490" as="sourcePoint" />
            <mxPoint x="720" y="280" as="targetPoint" />
            <Array as="points">
              <mxPoint x="670" y="490" />
              <mxPoint x="670" y="280" />
            </Array>
          </mxGeometry>
        </mxCell>
        <mxCell id="aJuwlWhBmxVCQWjiCqPt-2" value="" style="endArrow=classic;html=1;rounded=0;entryX=0.517;entryY=0.025;entryDx=0;entryDy=0;entryPerimeter=0;" parent="1" edge="1">
          <mxGeometry width="50" height="50" relative="1" as="geometry">
            <mxPoint x="497" y="437" as="sourcePoint" />
            <mxPoint x="497" y="464" as="targetPoint" />
          </mxGeometry>
        </mxCell>
        <mxCell id="FKuJMAErxG1GOTlVvf3b-37" value="" style="endArrow=classic;html=1;rounded=0;entryX=1.007;entryY=0.543;entryDx=0;entryDy=0;entryPerimeter=0;fillColor=#dae8fc;strokeColor=#6c8ebf;" parent="1" edge="1">
          <mxGeometry width="50" height="50" relative="1" as="geometry">
            <mxPoint x="37" y="422" as="sourcePoint" />
            <mxPoint x="90" y="422" as="targetPoint" />
          </mxGeometry>
        </mxCell>
        <mxCell id="FKuJMAErxG1GOTlVvf3b-36" value="" style="endArrow=classic;html=1;rounded=0;entryX=1.007;entryY=0.543;entryDx=0;entryDy=0;entryPerimeter=0;fillColor=#d5e8d4;strokeColor=#82b366;" parent="1" edge="1">
          <mxGeometry width="50" height="50" relative="1" as="geometry">
            <mxPoint x="37" y="280" as="sourcePoint" />
            <mxPoint x="90" y="280" as="targetPoint" />
          </mxGeometry>
        </mxCell>
        <mxCell id="K5PDdGLVO1gVshIRxQMe-83" value="" style="shape=cube;whiteSpace=wrap;html=1;boundedLbl=1;backgroundOutline=1;darkOpacity=0.05;darkOpacity2=0.1;size=52;rotation=0;flipH=1;fillColor=#dae8fc;strokeColor=#6c8ebf;rounded=0;" parent="1" vertex="1">
          <mxGeometry x="160" y="389" width="60" height="62" as="geometry" />
        </mxCell>
        <mxCell id="FKuJMAErxG1GOTlVvf3b-3" value="" style="group;rounded=0;" parent="1" vertex="1" connectable="0">
          <mxGeometry x="90" y="215" width="80" height="120" as="geometry" />
        </mxCell>
        <mxCell id="K5PDdGLVO1gVshIRxQMe-6" value="" style="shape=cube;whiteSpace=wrap;html=1;boundedLbl=1;backgroundOutline=1;darkOpacity=0.05;darkOpacity2=0.1;size=40;rotation=0;flipH=1;fillColor=#d5e8d4;strokeColor=#82b366;rounded=0;" parent="FKuJMAErxG1GOTlVvf3b-3" vertex="1">
          <mxGeometry width="50" height="120" as="geometry" />
        </mxCell>
        <mxCell id="K5PDdGLVO1gVshIRxQMe-7" value="" style="shape=cube;whiteSpace=wrap;html=1;boundedLbl=1;backgroundOutline=1;darkOpacity=0.05;darkOpacity2=0.1;size=30;rotation=0;flipH=1;fillColor=#d5e8d4;strokeColor=#82b366;rounded=0;" parent="FKuJMAErxG1GOTlVvf3b-3" vertex="1">
          <mxGeometry x="20" y="17" width="40" height="90" as="geometry" />
        </mxCell>
        <mxCell id="K5PDdGLVO1gVshIRxQMe-8" value="" style="shape=cube;whiteSpace=wrap;html=1;boundedLbl=1;backgroundOutline=1;darkOpacity=0.05;darkOpacity2=0.1;size=20;rotation=0;flipH=1;fillColor=#d5e8d4;strokeColor=#82b366;rounded=0;" parent="FKuJMAErxG1GOTlVvf3b-3" vertex="1">
          <mxGeometry x="40" y="34" width="30" height="60" as="geometry" />
        </mxCell>
        <mxCell id="K5PDdGLVO1gVshIRxQMe-9" value="" style="shape=cube;whiteSpace=wrap;html=1;boundedLbl=1;backgroundOutline=1;darkOpacity=0.05;darkOpacity2=0.1;size=10;rotation=0;flipH=1;fillColor=#d5e8d4;strokeColor=#82b366;rounded=0;" parent="FKuJMAErxG1GOTlVvf3b-3" vertex="1">
          <mxGeometry x="60" y="51" width="20" height="30" as="geometry" />
        </mxCell>
        <mxCell id="aJuwlWhBmxVCQWjiCqPt-4" value="&lt;div&gt;Content&lt;/div&gt;&lt;div&gt;Encoder&lt;br&gt;&lt;/div&gt;" style="text;html=1;align=center;verticalAlign=middle;whiteSpace=wrap;rounded=0;fillColor=#f5f5f5;fontColor=#333333;strokeColor=#666666;" parent="FKuJMAErxG1GOTlVvf3b-3" vertex="1">
          <mxGeometry x="10" y="77" width="60" height="30" as="geometry" />
        </mxCell>
        <mxCell id="FKuJMAErxG1GOTlVvf3b-4" value="" style="group;rounded=0;" parent="1" vertex="1" connectable="0">
          <mxGeometry x="90" y="354" width="80" height="120" as="geometry" />
        </mxCell>
        <mxCell id="FKuJMAErxG1GOTlVvf3b-5" value="" style="shape=cube;whiteSpace=wrap;html=1;boundedLbl=1;backgroundOutline=1;darkOpacity=0.05;darkOpacity2=0.1;size=40;rotation=0;flipH=1;fillColor=#dae8fc;strokeColor=#6c8ebf;rounded=0;" parent="FKuJMAErxG1GOTlVvf3b-4" vertex="1">
          <mxGeometry width="50" height="120" as="geometry" />
        </mxCell>
        <mxCell id="FKuJMAErxG1GOTlVvf3b-6" value="" style="shape=cube;whiteSpace=wrap;html=1;boundedLbl=1;backgroundOutline=1;darkOpacity=0.05;darkOpacity2=0.1;size=30;rotation=0;flipH=1;fillColor=#dae8fc;strokeColor=#6c8ebf;rounded=0;" parent="FKuJMAErxG1GOTlVvf3b-4" vertex="1">
          <mxGeometry x="20" y="17" width="40" height="90" as="geometry" />
        </mxCell>
        <mxCell id="FKuJMAErxG1GOTlVvf3b-7" value="" style="shape=cube;whiteSpace=wrap;html=1;boundedLbl=1;backgroundOutline=1;darkOpacity=0.05;darkOpacity2=0.1;size=20;rotation=0;flipH=1;fillColor=#dae8fc;strokeColor=#6c8ebf;rounded=0;" parent="FKuJMAErxG1GOTlVvf3b-4" vertex="1">
          <mxGeometry x="40" y="34" width="30" height="60" as="geometry" />
        </mxCell>
        <mxCell id="FKuJMAErxG1GOTlVvf3b-8" value="" style="shape=cube;whiteSpace=wrap;html=1;boundedLbl=1;backgroundOutline=1;darkOpacity=0.05;darkOpacity2=0.1;size=10;rotation=0;flipH=1;fillColor=#dae8fc;strokeColor=#6c8ebf;rounded=0;" parent="FKuJMAErxG1GOTlVvf3b-4" vertex="1">
          <mxGeometry x="60" y="51" width="20" height="30" as="geometry" />
        </mxCell>
        <mxCell id="aJuwlWhBmxVCQWjiCqPt-5" value="&lt;div&gt;Style&lt;/div&gt;&lt;div&gt;Encoder&lt;br&gt;&lt;/div&gt;" style="text;html=1;align=center;verticalAlign=middle;whiteSpace=wrap;rounded=0;fillColor=#f5f5f5;fontColor=#333333;strokeColor=#666666;" parent="FKuJMAErxG1GOTlVvf3b-4" vertex="1">
          <mxGeometry x="10" y="90" width="60" height="30" as="geometry" />
        </mxCell>
        <mxCell id="K5PDdGLVO1gVshIRxQMe-109" style="edgeStyle=orthogonalEdgeStyle;rounded=0;orthogonalLoop=1;jettySize=auto;html=1;" parent="1" edge="1">
          <mxGeometry relative="1" as="geometry">
            <mxPoint x="200" y="420" as="sourcePoint" />
            <mxPoint x="270" y="355" as="targetPoint" />
            <Array as="points">
              <mxPoint x="195" y="420" />
              <mxPoint x="253" y="420" />
              <mxPoint x="253" y="355" />
              <mxPoint x="270" y="355" />
            </Array>
          </mxGeometry>
        </mxCell>
        <mxCell id="FKuJMAErxG1GOTlVvf3b-31" value="" style="group;rounded=0;" parent="1" vertex="1" connectable="0">
          <mxGeometry x="270" y="294" width="333" height="166" as="geometry" />
        </mxCell>
        <mxCell id="FKuJMAErxG1GOTlVvf3b-23" value="" style="shape=cube;whiteSpace=wrap;html=1;boundedLbl=1;backgroundOutline=1;darkOpacity=0.05;darkOpacity2=0.1;size=68;flipH=0;fillColor=#f5f5f5;fontColor=#333333;strokeColor=#666666;rounded=0;" parent="FKuJMAErxG1GOTlVvf3b-31" vertex="1">
          <mxGeometry x="125" y="65" width="208" height="78" as="geometry" />
        </mxCell>
        <mxCell id="FKuJMAErxG1GOTlVvf3b-22" value="" style="shape=cube;whiteSpace=wrap;html=1;boundedLbl=1;backgroundOutline=1;darkOpacity=0.05;darkOpacity2=0.1;size=56;flipH=0;fillColor=#f5f5f5;fontColor=#333333;strokeColor=#666666;rounded=0;" parent="FKuJMAErxG1GOTlVvf3b-31" vertex="1">
          <mxGeometry x="141" y="48" width="176" height="66" as="geometry" />
        </mxCell>
        <mxCell id="FKuJMAErxG1GOTlVvf3b-21" value="" style="shape=cube;whiteSpace=wrap;html=1;boundedLbl=1;backgroundOutline=1;darkOpacity=0.05;darkOpacity2=0.1;size=44;flipH=0;fillColor=#f5f5f5;fontColor=#333333;strokeColor=#666666;rounded=0;" parent="FKuJMAErxG1GOTlVvf3b-31" vertex="1">
          <mxGeometry x="157" y="32" width="144" height="54" as="geometry" />
        </mxCell>
        <mxCell id="FKuJMAErxG1GOTlVvf3b-20" value="" style="shape=cube;whiteSpace=wrap;html=1;boundedLbl=1;backgroundOutline=1;darkOpacity=0.05;darkOpacity2=0.1;size=32;flipH=0;fillColor=#f5f5f5;fontColor=#333333;strokeColor=#666666;rounded=0;" parent="FKuJMAErxG1GOTlVvf3b-31" vertex="1">
          <mxGeometry x="173" y="16" width="112" height="42" as="geometry" />
        </mxCell>
        <mxCell id="K5PDdGLVO1gVshIRxQMe-114" value="" style="shape=cube;whiteSpace=wrap;html=1;boundedLbl=1;backgroundOutline=1;darkOpacity=0.05;darkOpacity2=0.1;size=20;flipH=0;fillColor=#f5f5f5;fontColor=#333333;strokeColor=#666666;rounded=0;" parent="FKuJMAErxG1GOTlVvf3b-31" vertex="1">
          <mxGeometry x="189" width="80" height="30" as="geometry" />
        </mxCell>
        <mxCell id="FKuJMAErxG1GOTlVvf3b-16" value="" style="group;rounded=0;" parent="FKuJMAErxG1GOTlVvf3b-31" vertex="1" connectable="0">
          <mxGeometry x="90" y="4" width="20" height="100" as="geometry" />
        </mxCell>
        <mxCell id="K5PDdGLVO1gVshIRxQMe-103" value="" style="shape=cube;whiteSpace=wrap;html=1;boundedLbl=1;backgroundOutline=1;darkOpacity=0.05;darkOpacity2=0.1;size=10;rotation=0;flipH=1;fillColor=#f5f5f5;strokeColor=#666666;fontColor=#333333;rounded=0;" parent="FKuJMAErxG1GOTlVvf3b-16" vertex="1">
          <mxGeometry width="20" height="20" as="geometry" />
        </mxCell>
        <mxCell id="K5PDdGLVO1gVshIRxQMe-104" value="" style="shape=cube;whiteSpace=wrap;html=1;boundedLbl=1;backgroundOutline=1;darkOpacity=0.05;darkOpacity2=0.1;size=10;rotation=0;flipH=1;fillColor=#f5f5f5;strokeColor=#666666;fontColor=#333333;rounded=0;" parent="FKuJMAErxG1GOTlVvf3b-16" vertex="1">
          <mxGeometry y="20" width="20" height="20" as="geometry" />
        </mxCell>
        <mxCell id="K5PDdGLVO1gVshIRxQMe-105" value="" style="shape=cube;whiteSpace=wrap;html=1;boundedLbl=1;backgroundOutline=1;darkOpacity=0.05;darkOpacity2=0.1;size=10;rotation=0;flipH=1;fillColor=#f5f5f5;strokeColor=#666666;fontColor=#333333;rounded=0;" parent="FKuJMAErxG1GOTlVvf3b-16" vertex="1">
          <mxGeometry y="40" width="20" height="20" as="geometry" />
        </mxCell>
        <mxCell id="K5PDdGLVO1gVshIRxQMe-106" value="" style="shape=cube;whiteSpace=wrap;html=1;boundedLbl=1;backgroundOutline=1;darkOpacity=0.05;darkOpacity2=0.1;size=10;rotation=0;flipH=1;fillColor=#f5f5f5;strokeColor=#666666;fontColor=#333333;rounded=0;" parent="FKuJMAErxG1GOTlVvf3b-16" vertex="1">
          <mxGeometry y="59" width="20" height="21" as="geometry" />
        </mxCell>
        <mxCell id="K5PDdGLVO1gVshIRxQMe-107" value="" style="shape=cube;whiteSpace=wrap;html=1;boundedLbl=1;backgroundOutline=1;darkOpacity=0.05;darkOpacity2=0.1;size=10;rotation=0;flipH=1;fillColor=#f5f5f5;strokeColor=#666666;fontColor=#333333;rounded=0;" parent="FKuJMAErxG1GOTlVvf3b-16" vertex="1">
          <mxGeometry y="80" width="20" height="20" as="geometry" />
        </mxCell>
        <mxCell id="FKuJMAErxG1GOTlVvf3b-27" value="" style="endArrow=classic;html=1;rounded=0;" parent="FKuJMAErxG1GOTlVvf3b-31" edge="1">
          <mxGeometry width="50" height="50" relative="1" as="geometry">
            <mxPoint x="104" y="34" as="sourcePoint" />
            <mxPoint x="186" y="34" as="targetPoint" />
          </mxGeometry>
        </mxCell>
        <mxCell id="K5PDdGLVO1gVshIRxQMe-102" value="Style Mapping Network" style="shape=cube;whiteSpace=wrap;html=1;boundedLbl=1;backgroundOutline=1;darkOpacity=0.05;darkOpacity2=0.1;flipH=1;flipV=0;size=12;fillColor=#f5f5f5;fontColor=#333333;strokeColor=#666666;rounded=0;" parent="FKuJMAErxG1GOTlVvf3b-31" vertex="1">
          <mxGeometry y="23" width="80" height="62" as="geometry" />
        </mxCell>
        <mxCell id="FKuJMAErxG1GOTlVvf3b-25" value="" style="endArrow=classic;html=1;rounded=0;" parent="FKuJMAErxG1GOTlVvf3b-31" edge="1">
          <mxGeometry width="50" height="50" relative="1" as="geometry">
            <mxPoint x="105" y="15" as="sourcePoint" />
            <mxPoint x="199" y="15" as="targetPoint" />
          </mxGeometry>
        </mxCell>
        <mxCell id="FKuJMAErxG1GOTlVvf3b-28" value="" style="endArrow=classic;html=1;rounded=0;" parent="FKuJMAErxG1GOTlVvf3b-31" edge="1">
          <mxGeometry width="50" height="50" relative="1" as="geometry">
            <mxPoint x="104" y="54" as="sourcePoint" />
            <mxPoint x="174" y="54" as="targetPoint" />
          </mxGeometry>
        </mxCell>
        <mxCell id="FKuJMAErxG1GOTlVvf3b-29" value="" style="endArrow=classic;html=1;rounded=0;" parent="FKuJMAErxG1GOTlVvf3b-31" edge="1">
          <mxGeometry width="50" height="50" relative="1" as="geometry">
            <mxPoint x="104" y="74" as="sourcePoint" />
            <mxPoint x="162" y="74" as="targetPoint" />
          </mxGeometry>
        </mxCell>
        <mxCell id="FKuJMAErxG1GOTlVvf3b-30" value="" style="endArrow=classic;html=1;rounded=0;" parent="FKuJMAErxG1GOTlVvf3b-31" edge="1">
          <mxGeometry width="50" height="50" relative="1" as="geometry">
            <mxPoint x="105" y="94" as="sourcePoint" />
            <mxPoint x="149" y="94" as="targetPoint" />
          </mxGeometry>
        </mxCell>
        <mxCell id="aJuwlWhBmxVCQWjiCqPt-7" value="&lt;div&gt;StyleGAN&lt;/div&gt;&lt;div&gt;Generator&lt;br&gt;&lt;/div&gt;" style="text;html=1;align=center;verticalAlign=middle;whiteSpace=wrap;rounded=0;fillColor=#f5f5f5;fontColor=#333333;strokeColor=#666666;" parent="FKuJMAErxG1GOTlVvf3b-31" vertex="1">
          <mxGeometry x="213" y="62" width="80" height="42" as="geometry" />
        </mxCell>
        <mxCell id="FKuJMAErxG1GOTlVvf3b-32" value="" style="endArrow=classic;html=1;rounded=0;entryX=0.513;entryY=0.2;entryDx=0;entryDy=0;entryPerimeter=0;" parent="1" edge="1">
          <mxGeometry width="50" height="50" relative="1" as="geometry">
            <mxPoint x="165" y="280" as="sourcePoint" />
            <mxPoint x="496" y="300" as="targetPoint" />
            <Array as="points">
              <mxPoint x="496" y="280" />
            </Array>
          </mxGeometry>
        </mxCell>
        <mxCell id="FKuJMAErxG1GOTlVvf3b-39" value="" style="group;rounded=0;" parent="1" vertex="1" connectable="0">
          <mxGeometry x="730" y="450" width="80" height="120" as="geometry" />
        </mxCell>
        <mxCell id="FKuJMAErxG1GOTlVvf3b-40" value="" style="shape=cube;whiteSpace=wrap;html=1;boundedLbl=1;backgroundOutline=1;darkOpacity=0.05;darkOpacity2=0.1;size=40;rotation=0;flipH=1;fillColor=#fff2cc;strokeColor=#d6b656;rounded=0;" parent="FKuJMAErxG1GOTlVvf3b-39" vertex="1">
          <mxGeometry width="50" height="120" as="geometry" />
        </mxCell>
        <mxCell id="FKuJMAErxG1GOTlVvf3b-41" value="" style="shape=cube;whiteSpace=wrap;html=1;boundedLbl=1;backgroundOutline=1;darkOpacity=0.05;darkOpacity2=0.1;size=30;rotation=0;flipH=1;fillColor=#fff2cc;strokeColor=#d6b656;rounded=0;" parent="FKuJMAErxG1GOTlVvf3b-39" vertex="1">
          <mxGeometry x="20" y="17" width="40" height="90" as="geometry" />
        </mxCell>
        <mxCell id="FKuJMAErxG1GOTlVvf3b-42" value="" style="shape=cube;whiteSpace=wrap;html=1;boundedLbl=1;backgroundOutline=1;darkOpacity=0.05;darkOpacity2=0.1;size=20;rotation=0;flipH=1;fillColor=#fff2cc;strokeColor=#d6b656;rounded=0;" parent="FKuJMAErxG1GOTlVvf3b-39" vertex="1">
          <mxGeometry x="40" y="34" width="30" height="60" as="geometry" />
        </mxCell>
        <mxCell id="FKuJMAErxG1GOTlVvf3b-43" value="" style="shape=cube;whiteSpace=wrap;html=1;boundedLbl=1;backgroundOutline=1;darkOpacity=0.05;darkOpacity2=0.1;size=10;rotation=0;flipH=1;fillColor=#fff2cc;strokeColor=#d6b656;rounded=0;" parent="FKuJMAErxG1GOTlVvf3b-39" vertex="1">
          <mxGeometry x="60" y="51" width="20" height="30" as="geometry" />
        </mxCell>
        <mxCell id="aJuwlWhBmxVCQWjiCqPt-10" value="&lt;div&gt;Typeface&lt;/div&gt;&lt;div&gt;Classifier&lt;br&gt;&lt;/div&gt;" style="text;html=1;align=center;verticalAlign=middle;whiteSpace=wrap;rounded=0;fillColor=#f5f5f5;fontColor=#333333;strokeColor=#666666;" parent="FKuJMAErxG1GOTlVvf3b-39" vertex="1">
          <mxGeometry x="20" y="81" width="60" height="30" as="geometry" />
        </mxCell>
        <mxCell id="FKuJMAErxG1GOTlVvf3b-44" value="" style="group;rounded=0;" parent="1" vertex="1" connectable="0">
          <mxGeometry x="730" y="317" width="90" height="120" as="geometry" />
        </mxCell>
        <mxCell id="FKuJMAErxG1GOTlVvf3b-45" value="" style="shape=cube;whiteSpace=wrap;html=1;boundedLbl=1;backgroundOutline=1;darkOpacity=0.05;darkOpacity2=0.1;size=40;rotation=0;flipH=1;fillColor=#fff2cc;strokeColor=#d6b656;rounded=0;" parent="FKuJMAErxG1GOTlVvf3b-44" vertex="1">
          <mxGeometry width="50" height="120" as="geometry" />
        </mxCell>
        <mxCell id="FKuJMAErxG1GOTlVvf3b-46" value="" style="shape=cube;whiteSpace=wrap;html=1;boundedLbl=1;backgroundOutline=1;darkOpacity=0.05;darkOpacity2=0.1;size=30;rotation=0;flipH=1;fillColor=#fff2cc;strokeColor=#d6b656;rounded=0;" parent="FKuJMAErxG1GOTlVvf3b-44" vertex="1">
          <mxGeometry x="20" y="17" width="40" height="90" as="geometry" />
        </mxCell>
        <mxCell id="FKuJMAErxG1GOTlVvf3b-47" value="" style="shape=cube;whiteSpace=wrap;html=1;boundedLbl=1;backgroundOutline=1;darkOpacity=0.05;darkOpacity2=0.1;size=20;rotation=0;flipH=1;fillColor=#fff2cc;strokeColor=#d6b656;rounded=0;" parent="FKuJMAErxG1GOTlVvf3b-44" vertex="1">
          <mxGeometry x="40" y="34" width="30" height="60" as="geometry" />
        </mxCell>
        <mxCell id="FKuJMAErxG1GOTlVvf3b-48" value="" style="shape=cube;whiteSpace=wrap;html=1;boundedLbl=1;backgroundOutline=1;darkOpacity=0.05;darkOpacity2=0.1;size=10;rotation=0;flipH=1;fillColor=#fff2cc;strokeColor=#d6b656;rounded=0;" parent="FKuJMAErxG1GOTlVvf3b-44" vertex="1">
          <mxGeometry x="60" y="51" width="20" height="30" as="geometry" />
        </mxCell>
        <mxCell id="aJuwlWhBmxVCQWjiCqPt-9" value="Discriminator" style="text;html=1;align=center;verticalAlign=middle;whiteSpace=wrap;rounded=0;fillColor=#f5f5f5;fontColor=#333333;strokeColor=#666666;" parent="FKuJMAErxG1GOTlVvf3b-44" vertex="1">
          <mxGeometry x="10" y="81" width="80" height="30" as="geometry" />
        </mxCell>
        <mxCell id="FKuJMAErxG1GOTlVvf3b-49" value="" style="group;rounded=0;" parent="1" vertex="1" connectable="0">
          <mxGeometry x="730" y="190" width="90" height="120" as="geometry" />
        </mxCell>
        <mxCell id="FKuJMAErxG1GOTlVvf3b-50" value="" style="shape=cube;whiteSpace=wrap;html=1;boundedLbl=1;backgroundOutline=1;darkOpacity=0.05;darkOpacity2=0.1;size=40;rotation=0;flipH=1;fillColor=#fff2cc;strokeColor=#d6b656;rounded=0;" parent="FKuJMAErxG1GOTlVvf3b-49" vertex="1">
          <mxGeometry width="50" height="120" as="geometry" />
        </mxCell>
        <mxCell id="FKuJMAErxG1GOTlVvf3b-51" value="" style="shape=cube;whiteSpace=wrap;html=1;boundedLbl=1;backgroundOutline=1;darkOpacity=0.05;darkOpacity2=0.1;size=30;rotation=0;flipH=1;fillColor=#fff2cc;strokeColor=#d6b656;rounded=0;" parent="FKuJMAErxG1GOTlVvf3b-49" vertex="1">
          <mxGeometry x="20" y="17" width="40" height="90" as="geometry" />
        </mxCell>
        <mxCell id="FKuJMAErxG1GOTlVvf3b-52" value="" style="shape=cube;whiteSpace=wrap;html=1;boundedLbl=1;backgroundOutline=1;darkOpacity=0.05;darkOpacity2=0.1;size=20;rotation=0;flipH=1;fillColor=#fff2cc;strokeColor=#d6b656;rounded=0;" parent="FKuJMAErxG1GOTlVvf3b-49" vertex="1">
          <mxGeometry x="40" y="34" width="30" height="60" as="geometry" />
        </mxCell>
        <mxCell id="FKuJMAErxG1GOTlVvf3b-53" value="" style="shape=cube;whiteSpace=wrap;html=1;boundedLbl=1;backgroundOutline=1;darkOpacity=0.05;darkOpacity2=0.1;size=10;rotation=0;flipH=1;fillColor=#fff2cc;strokeColor=#d6b656;rounded=0;" parent="FKuJMAErxG1GOTlVvf3b-49" vertex="1">
          <mxGeometry x="60" y="51" width="20" height="30" as="geometry" />
        </mxCell>
        <mxCell id="aJuwlWhBmxVCQWjiCqPt-8" value="Recognizer" style="text;html=1;align=center;verticalAlign=middle;whiteSpace=wrap;rounded=0;fillColor=#f5f5f5;fontColor=#333333;strokeColor=#666666;" parent="FKuJMAErxG1GOTlVvf3b-49" vertex="1">
          <mxGeometry x="10" y="77" width="80" height="30" as="geometry" />
        </mxCell>
        <mxCell id="FKuJMAErxG1GOTlVvf3b-59" value="" style="endArrow=classic;html=1;rounded=0;fillColor=#d5e8d4;strokeColor=#82b366;" parent="1" edge="1">
          <mxGeometry width="50" height="50" relative="1" as="geometry">
            <mxPoint x="37" y="280" as="sourcePoint" />
            <mxPoint x="720" y="250" as="targetPoint" />
            <Array as="points">
              <mxPoint x="60" y="280" />
              <mxPoint x="60" y="210" />
              <mxPoint x="670" y="210" />
              <mxPoint x="670" y="250" />
            </Array>
          </mxGeometry>
        </mxCell>
        <mxCell id="FKuJMAErxG1GOTlVvf3b-60" value="" style="endArrow=classic;html=1;rounded=0;fillColor=#dae8fc;strokeColor=#6c8ebf;" parent="1" edge="1">
          <mxGeometry width="50" height="50" relative="1" as="geometry">
            <mxPoint x="37" y="422" as="sourcePoint" />
            <mxPoint x="720" y="540" as="targetPoint" />
            <Array as="points">
              <mxPoint x="60" y="422" />
              <mxPoint x="60" y="640" />
              <mxPoint x="640" y="640" />
              <mxPoint x="640" y="540" />
            </Array>
          </mxGeometry>
        </mxCell>
        <mxCell id="FKuJMAErxG1GOTlVvf3b-61" value="" style="endArrow=classic;html=1;rounded=0;fillColor=#dae8fc;strokeColor=#6c8ebf;" parent="1" edge="1">
          <mxGeometry width="50" height="50" relative="1" as="geometry">
            <mxPoint x="37" y="422" as="sourcePoint" />
            <mxPoint x="720" y="410" as="targetPoint" />
            <Array as="points">
              <mxPoint x="60" y="422" />
              <mxPoint x="60" y="640" />
              <mxPoint x="640" y="640" />
              <mxPoint x="640" y="410" />
            </Array>
          </mxGeometry>
        </mxCell>
        <mxCell id="FKuJMAErxG1GOTlVvf3b-62" value="" style="endArrow=classic;html=1;rounded=0;fillColor=#ffe6cc;strokeColor=#d79b00;" parent="1" edge="1">
          <mxGeometry width="50" height="50" relative="1" as="geometry">
            <mxPoint x="555" y="490" as="sourcePoint" />
            <mxPoint x="720" y="510" as="targetPoint" />
            <Array as="points">
              <mxPoint x="670" y="490" />
              <mxPoint x="670" y="510" />
            </Array>
          </mxGeometry>
        </mxCell>
        <mxCell id="FKuJMAErxG1GOTlVvf3b-63" value="" style="endArrow=classic;html=1;rounded=0;fillColor=#ffe6cc;strokeColor=#d79b00;" parent="1" edge="1">
          <mxGeometry width="50" height="50" relative="1" as="geometry">
            <mxPoint x="555" y="490" as="sourcePoint" />
            <mxPoint x="720" y="380" as="targetPoint" />
            <Array as="points">
              <mxPoint x="670" y="490" />
              <mxPoint x="670" y="380" />
            </Array>
          </mxGeometry>
        </mxCell>
        <mxCell id="FKuJMAErxG1GOTlVvf3b-65" value="OCR loss" style="text;html=1;strokeColor=#d6b656;fillColor=#fff2cc;align=center;verticalAlign=middle;whiteSpace=wrap;rounded=0;fontSize=18;spacingLeft=2;spacingBottom=2;spacingTop=2;flipH=1;" parent="1" vertex="1">
          <mxGeometry x="854.96" y="235" width="140" height="40" as="geometry" />
        </mxCell>
        <mxCell id="FKuJMAErxG1GOTlVvf3b-66" style="edgeStyle=orthogonalEdgeStyle;rounded=0;orthogonalLoop=1;jettySize=auto;html=1;entryX=0;entryY=0.5;entryDx=0;entryDy=0;fontSize=18;exitX=0.083;exitY=0.5;exitDx=0;exitDy=0;exitPerimeter=0;" parent="1" target="FKuJMAErxG1GOTlVvf3b-65" edge="1">
          <mxGeometry relative="1" as="geometry">
            <mxPoint x="805" y="255" as="sourcePoint" />
          </mxGeometry>
        </mxCell>
        <mxCell id="FKuJMAErxG1GOTlVvf3b-67" value="Adversarial loss" style="text;html=1;strokeColor=#d6b656;fillColor=#fff2cc;align=center;verticalAlign=middle;whiteSpace=wrap;rounded=0;fontSize=18;spacingLeft=2;spacingBottom=2;spacingTop=2;flipH=1;" parent="1" vertex="1">
          <mxGeometry x="854.96" y="363" width="140" height="40" as="geometry" />
        </mxCell>
        <mxCell id="FKuJMAErxG1GOTlVvf3b-68" style="edgeStyle=orthogonalEdgeStyle;rounded=0;orthogonalLoop=1;jettySize=auto;html=1;entryX=0;entryY=0.5;entryDx=0;entryDy=0;fontSize=18;exitX=0.083;exitY=0.5;exitDx=0;exitDy=0;exitPerimeter=0;" parent="1" target="FKuJMAErxG1GOTlVvf3b-67" edge="1">
          <mxGeometry relative="1" as="geometry">
            <mxPoint x="805" y="383" as="sourcePoint" />
          </mxGeometry>
        </mxCell>
        <mxCell id="FKuJMAErxG1GOTlVvf3b-69" value="&lt;div&gt;Style loss&lt;br&gt;&lt;/div&gt;" style="text;html=1;strokeColor=#d6b656;fillColor=#fff2cc;align=center;verticalAlign=middle;whiteSpace=wrap;rounded=0;fontSize=18;spacingLeft=2;spacingBottom=2;spacingTop=2;flipH=1;" parent="1" vertex="1">
          <mxGeometry x="854.96" y="496" width="140" height="40" as="geometry" />
        </mxCell>
        <mxCell id="FKuJMAErxG1GOTlVvf3b-70" style="edgeStyle=orthogonalEdgeStyle;rounded=0;orthogonalLoop=1;jettySize=auto;html=1;entryX=0;entryY=0.5;entryDx=0;entryDy=0;fontSize=18;exitX=0.083;exitY=0.5;exitDx=0;exitDy=0;exitPerimeter=0;" parent="1" target="FKuJMAErxG1GOTlVvf3b-69" edge="1">
          <mxGeometry relative="1" as="geometry">
            <mxPoint x="805" y="516" as="sourcePoint" />
          </mxGeometry>
        </mxCell>
        <mxCell id="pbFzUUPsV5RpCnLdQWag-8" style="edgeStyle=orthogonalEdgeStyle;orthogonalLoop=1;jettySize=auto;html=1;exitX=1;exitY=0.5;exitDx=0;exitDy=0;entryX=0;entryY=0.5;entryDx=0;entryDy=0;fontSize=18;fillColor=#dae8fc;strokeColor=#6c8ebf;rounded=0;" parent="1" source="pbFzUUPsV5RpCnLdQWag-1" target="pbFzUUPsV5RpCnLdQWag-7" edge="1">
          <mxGeometry relative="1" as="geometry">
            <Array as="points">
              <mxPoint x="60" y="421" />
              <mxPoint x="60" y="530" />
            </Array>
          </mxGeometry>
        </mxCell>
        <mxCell id="pbFzUUPsV5RpCnLdQWag-1" value="" style="shape=image;verticalLabelPosition=bottom;labelBackgroundColor=default;verticalAlign=top;imageAspect=0;image=data:image/png,iVBORw0KGgoAAAANSUhEUgAAASAAAABdCAYAAAAFSLsrAAAgAElEQVR4Xu2dibrdNpaddTXakmyX69UyVHdneIFOuuZO8s5drrLLg6wxXAAX+WOfDQLn3mvL6ZDfJx1eDiCGjYW1BwA3//in3394MHnc3Nw80D8d/o3n2d+69uHDh/Ivnvvv7Dqz1fvuTH5GxXO+mJejdx6uN5faePDoYa2Phze+evkm0/ddXmNd9urvKG+sg6w+srLEMmd18OF9bbc9z/WsltiV0PzVlYsjeRm1T+9+rLf43Oj+KozrT9sNsja7bT4/5ntrd31wIJ5o3z4U9Ooju97DifTZE4BiJxvj8QlAJwB9TFC55tu/eAD6hz/+btjjstGrN6L1Rp2pERcsqR1k91H26Lu3Gf1jYw5HvqW2DEAPl9bVPx0PHwYGROaQU5A+i5iQMDeavr7ViRjqRkzATCyFumcWOnO+fGSrD53vtKdlQWBDGTsq18yccT5RzItHjthXSboVnONPNOzuZEBHsn9bBjRq45vf/OG3PwsAMSNUx2o/2FWzYYbRmXqqyxT1xoeGoINnb5asWsinAQiCPipf7Z+tWjN655rBYEbd3Ntjw6uahURSjvKa3bu2bLHso/dH93t1GWXgGpkYtc/HvP+xGdCo7CcAAQBHlVXA4QSgpppOAJqRmo/3zC8egP7z7//lkAHF0XVmtB2NQkfqWGRKsyPgT2HkzMSmqDzrjYfLmb8rNtTjLfdlhB6J8Ywx+xoqXYhbKh3XMbQZVjeSGZd99rmZbxZS12GnJwNqpe2aeqIR+khmleYUA2LjXwtAMw05oxaMOt+swM2kcwR6ghmqYDxv3juwL1ykf/nB7co1HY7JjN6baZcKPrWEV2qRh9U8ytvsoJMOEFeqr05jqj5uIzwf+Z2PxYBmi30C0ERNNaB7AtBEjR0/cgLQnatwOoH/5wFoxut0xD5mRpZr6N1szV8r5EfpzgBQVc2gmjResGM7/4VCc2Bov6/yz7RLpT6X6tZd2dC1bXPN89c8y7qcro/ZBviFPPeLB6CRG/7I0zSyu9DbdV8NPKOujYRwdP9IBeiqYAKgDs7kZefDgK7qs96y0GoUdK2vjwx9mFf2hOUTDeQAgLZP3fc3Lyu8uTJyrY/uM7EIpy7KhRfsymr7pT7+SwagYgM6AWgsOjMMSFFAJwCN63LqiWDHGQHM6P4JQIts9gP1t+q5zzigmXYuADQTCZ0xnZ6lm8++f//+qhif2Uz7uVlWNWI819xvGBDULs3I2DpC8R6tsU063Zt4L2JDgIIHre1R5Z1AjBqWBAmaqcL6TGQ6iQ+vzdXY83VBjO6qq62l6bYPVdVBybM0GidfyOtVJK9TNZeX65Wa7Xr+cBGcmwQdat9Z5sIsx/v3bW42VoPyp1XNNr7IzGUJ2zRiYCYrGBKdVtR87d3805//UJ6e6cwEnXju7EUAUkXOpj/fe37eJ9kRq61n68O7Gz5maW2DZQZc8CC1qlcUyDaZvCHbzjShrm2Ns6d+BCcub2ljltYvhWztqhkFMwrwwA7W817F6+wlGQD1wiHS9Pe2UTt1Yg6aJmnrbf1rjM2lFm/WaHmBzqNHj0u6T58+Lf/cR9wP3755++DH1z+W629ev97yoFy6/R2FH9/dos6bCPhe6ZYUN1kNIIMmC61ZH9xfDdLffbEphzrGCUATWHYCUIHJHXlPAMIQVKtmdJwAlAytPQDqsaEeA+I8qI/FgEZq1EhARvcb9WodMhqbjyoz8V6NDPX+bmZcL9c84nNk1/nAU3aX+mgY0DaHawm7bCh/znb2aRy3Z0BHeWc99Z7rOU7yNq75nGVAIzk5uv/4cWU9+jXref78+YMXL17UPCxtbY3h9cJ6vvvuu3L91atX23XfL0PC0h6uD5o7XP76u0ouRKmXx/uyAR3VQfxGagO6FoB69iBW6IyKd5fGHXXIu6TdvFtAYb0CgfmwqJoGYlHjR48elYf0m53TQyjheffuXXlevxayKGzOx4z97ZryRvDbBbjEepektNzICIBmPJS9fM2CxkiOenKQglUpWm3MaHa7JjRk9tknT56Ubz179uzBp59+Ws4JQMzjmzdvHnz//fflGQGQ/tahX8uK5IOy4ny0dVCtz8u06aFI3BcAzQ4gJV+ZEfoEoIO2OgGoVE6Xsa1VNwKKWMMnALWTkE8ASvpgHHk94vcQj6P8tQI5hOvwwM/FgDBoFvWIKoeNgo8WY6PpNo2MGgE9Ckb6LMqtQ79v374t5/olC8pGuGvryc/H9sjaR6PmxoYw743fPGI917T5fbXfKJ1GVkF7bnoxFB2w7dVBbA/WwYgBkS2L5fz4YzVC65fnGRvS81E+an/dV69q8pb4BH4KBtRjzc7LkAEdjUzUNTMQ+vcKQKm7HTYg3TcAiW7rn45PPvlko94SNteZ6qknbAajTMBuCz6RwWR/17R3L1gR5sTayja+S37K12xvuuV8rvj9MRjhjQMAGoHNLND2bEBWxyQntg0p71a1BDhSw3T88MMPjaxYPmgD2kwBy0BoE2I1Jx57p+4TgHp4cNFGIxXsBKC2yuiGr57b1Yh5AtBd8ecEoP8fAeiaSOgZMOqNFrOjxG2leDTa3TbdC8QudMH8ICymhuHGoxBVMBkc9U+HrlMdM62WCmbjo36tmmmk84iotC9WYLyygIcq2DZQYg1wqGA9tWu2jbPRcbb9Rt+4yghdmnLzKOwN26nLI+MqX+k95+tqO7MhsWIzZDEhy4fu+3mxG8oE2ZDlhky0YZKO8YkxOz+xCjbNgLIVEWcbcbZBSp+9p6jYK/vZvTxOD8kay1rS1XnTGdegyxJgtaoREiQDjQTMdFu/Fjw9Qy+Y3a/6tbDRNkQAuqYNepXRA5SqcrnEebDLkQ1o1CnvI+9ZmbKBMv9WCRMtSVzK595DZ8GxyMSB+sh7HkAkG1a75I5/+fJlyY9kwyClvwlA2QCl/NNe6HppAkkHAUv3qYKNOt5mrzoBaFRVrYv2BKC2vk4AauvjBKBjEHZt3QsAjbvux3nip2Bblyyommhbwx5GzbXoMjZ7tIt0m8ZHpuMRTgxIRkcdMlKbbheDcCcQ8a6sgvnozgWjLfNKZnukxl/L0EbsZ8hcGlJHnSTRTwbsZpQXsiwxFedN8mGm89lnnz34/PPPS1JkyHqGrMcMmSo6jdCc/rQHlZbp0ocd8r4Y0EyvnwagSCvvKuAzmbvrM3cBoOzd2GxtVPSeW18vALFe1rkBKKpj1vcFTAxWtNolATMA0fvB+omdbLZ9jp7b6qDph0uJ8n65ZadX70dAwHvZ+3dpyxEAMVD4csrZoLC3ENIsaJDqtMDHACR1zAOU1DTLgWSDA5RthDEoUdmr31s5+4UXs16fYbC3aYPeO/F6uiLi0Sg1K+C3aJ97e+U2FeaPnwAEoTwB6N5kcgeECgyWsxOABtvyzI5eM/TZz9wXiM2mMwKka+4zELGeXxorywL1iYrEQDOxHjMg0m0ZH82ApHZl6lic98OAUH9Xv6NyZfWnd/zeBy0D4eKFEdTv9kZQXWdesnPKTPNd5IEMvKd6zoziWVlLetsMhXxuW0+uY15G8q88mgHFmC7nTQZoqWE6yIAkEww+zGKClCZjxpRGdWzYajk3lWZr+wPVeqT+s6wjBB+uCX1XAMqYxSxwDDM/GbA26oixI8TvtnaRsO4PHrbaRQCioAoorGpJqAhA9I6ZVhOA/v73v29gFF3ytiEo/UylmVGNaDfYZA8MiHPBYvs5/d76T7EOhsAXhN/Ps3w91a0HRqkcLw3mNouTUUd1xjJFMMo6sa7R09nI1CrHDNMQAFFFZ/sYgPTrAFYBlEHK36mAtM/low2IeczOj/rezGCSeeSyNE8ACrUyskNcBCKeAJTOyI4dLAORIwbEeycAfbKxJ9XrvysAuiYQccRIoorFkeGIJg87/R09Pj8VA4rR+1tH6ahg1zIgBiVGBmS6zTQjQ4jlppoT27JlQJ4hvpvfHz5cvHmrvhIZTPZuD4CiTIza5ohpZOx6xFyo0rVOoRLWvlVLxlAiKJIJZH0jyjyZic/ZJmRAUsdskNZ1pmWDtNRzxonRIG0VbM+jVjbYZ8Rn/TGqwdkg0NSf+FWihdxKBbuNqjUjPLZPROHv0dSs0Ed5i6CXCeUIOEflaN5fZHTzcHVUhdJpyIzWRuoBkASMKlgWFf3tt99u68MIfAhAIxtQD/x7Qti0weZFWaKvOwDUo/DXUnW288xE55HqPLJV1KLl7vcMgIbpHbBpqmBUoQVEBiMuzSFb0K9+9auSou1CTt52QckEwzQiAOmbPTf8SCaO+sSoP54AJLG6Ij7lmmclrycAtYEJJwDNRYlnDOgEIHjBrkX4EdvoGSuPVAEymmuN1bPPXwU4opkhgOumA25ZsCIHRbpc6QWjx0OjIBmQRziNdh756PGIlJj1l6lgI1pd2RtiR8zeyoJkl4tasS2zYLgeQy3cY8LbpfyMRusew83kuZGRhgGN436isXnErON9AhA9VhkD+uKLLx58+eWXFwxIeXAgotRyn3PJjsjY699t22V9YKZfxjLdWQXj3vAzANTr5DOd/7a2gh7VPhLga4XjqKM0nRasXfLbNOQKTL140x4AkXoTgAREBiBGRZPC9/T2TMBi+3LZhmzVxsePnzx47JUdHz7ePHgEGoKh8uuOpfPUrtSxj41ofQSsWRUhA+j9W/tcsMuOVa9Eue7J+ai+lVbGgBhAyLlgAiCqYGSZGox0EIBkC7IK1sgyJhY3q3F0BtFrB+e7AtnNCUCt6I2ANMYBnQC0x5+cAHQsSycAXdKCm//42/9RMDKOQD36mhkWe+/qukfZGCqerXvcMI2O5yuO+CNjYTaKzdDIC9azXWjnF2/fjyNKMsKQASkOyIuRRwZEFmEvBxkQWQfrtccInXV6yWgQF/vxjH3Ozn72dFkq4mldTO3xk2VW/8KIdHANa426XEyNUwasSnJlR8oE8xBlKFO7ZlWEnlpwKf6FV61Up7+pQNYXemphT4Zdb/olg+XzDESUB0wsSIfkg+tAmwF98803m1rOuYIBBuufiikda5nNqz02NGJJZMh5ne9Xb/7Dv/zzRbZ6gBKXgSCFp9cim/ukTHGpUerAPTAasZGeQI7em6XVrqamPpaLmxE6Tu7DekA9Ss6JqQ40ExAZjPSbrYQnALINiEFnBKAo/Gwf3WP7cRIk56jV9Ysq6DwraxbVPasEPg54VNncZmpHAxDnKSmvvi6QcpmYxwhArOdrAGikvkU52dQZeMA03u2Da60rHTN2n1k5JANy/TE6npNRdW6ZiJHQBiB6wVTHBnzW8Q46+YqWI4Dw/WvA6ASgQYT0CUB1tw4uEWoGdAKQQOcEoAhMPwsA9UZtd9gY9EbDZWbQlKdH/woDXKDYRjIhdTY6ajQd5aGH2CNaGNnB0d/xGxeMcH2gREXbSxSW5qDR0OdarN719GypF7Ke7Xyh22/XLXpUH5sRGnFARe1ZF7GPo03WDgaauEUQr3tRLP3a8FxGf3pPVq7MdPQMR3ZG6XJOWzZrO7ILqvc9BpS124ilkLHxvFKcmmIFnd37N8OAsjY2a+Kv85wxIAG/24Fql9Qxx4apTViX9nyJAfk67W/MV28u2CzzyZ4bqZ+3YkDsZHFOEWkYC2cAuqTwlbaLRnqFN6XpdyWMX3/9dXlGeiwpvKkphYoCz7wpPerGFGDneaSOzTTERUfhS1ZgFR+0ghG/WVSklQernixsLxag+eyzuvbLy5cvNqD+5NNPFipdd8XQlrw//FAXI//u+0UF+67uE/Xjj682wSuNveZHcPHoUVUdHi6/ttnIm6XjydN9V46nEvx1nyo/t3eU9fs/7rT+3dslYG7drYML7fNcnYkAxI7iNqa6wgEttoNlpSfMXGeJnVj1G1VPfpP2s/qNWnt1C+19G3HO26JMOp+UyfL+2saUSaWRqZXswJQteb3s+RIYeVBS+eTx0qH+YhVM9Rs9X3qGfcL5LQrYphnofBOa5WT3224WzuDK3fIs9RtlbUG41l8MXNlsPAq7CA292YBOAIpdYP/7BKBFqE8AasDkBKA2jquC/B0ByCDE0UXdkEZijgxkQKbwVLtkxbcln+vbajT861//Wnr4V1991Sy6lS28HhkQp3fQmE1VMWMj22hwENyWwVCX4sOzoKUrmm+uI0htmJrqs2e7gVfM8It19TudP1loto6nC0vZZ8O/fvBqXRFRRl3ulPnDq7pSYrs0hxY7rzuyVla6pmmmIwPzei72s8X4aE1q7EX2et2PSt82o3mrGJ91d85Pnu3bCzF2RUZ1zuQ3A9Ko7XQiA3Jbst75jMrHeuVqApY5rrXNxf4pc06fkcfl/H1leyr/FgD6Zql3bIPDWebuC0rbeaF89BgQNYDeqgEKPPz1r39d8qN+Y+1BZfrb3/5WrktzoBHa8s8+m866J/XoBaot6Y80BrYNz5W3kZ0o3tffDQO6FoAyb5coue0+qlBHc6rBnAECkICItD1TwdjA9OQUwVntJRRUCvWMfcDC2avAizTWxiwEXmvmFCDI3bgx+NB6fZxsSINw5ta+AKAVmFoAutkWOOduHFz83p0mdnyDS7HPvaob4r36YfFkrR1RauEOQPtSIiwHPXhql2zOEgGAoBMBiH/T1uiyxKUr6DGyQd3vHYHb+xWA3iwA9GoFdcmjVR5OAuYWyTGMgfVJtYTqID2HPmfeBD49ALLJggAkgDc4xk0N3Td6Mk2Zz54ZvXfUZ6KNqLVJ7SU+ASig9glAde/xE4BOAPqoAMRRO9Jh0jujOwPZNPJ6lCKi6xmjvmg6KSW9Y9nIwFE+xiIRXaO3ylgbaaX+jihtCplV/JEKJuaz089LLwq3Y+aozeBD1RfrMmNA8oZxfWizRsYBqY7NPqkKuz04Sse4rG3FPQQWvl6YkNUxzsD/ZMnvxuSWuCWr2Zy1rTpjECWXjfC3YhAl24tqF4Mk/d2o+vl6NB9UdrovgXrBph/VNlO7y7hfmN/CgMw4JKc0+roclEM6F6hqKS2WI2NAzA9VMNWl48RUfqmxOsTIqIK5Lpkff4dG8As75mqF7qlU8XrGVnvq2lGakTk1KljmeowARHsQbS5WIRhJG1UwAhApbrb98N6p28hRVnRUIzKqx4o/qrAIQNMjwGp3k52H9eFOQyDgshsCBT8TbRWuD0YZS/BplyAAOa9Kz0KrX4OROyftE9zut0TRem962XrW82r3qTaS91g2QgGKTlvf8bo16jRUJT2wCDgz93yc00YAoqrIEAECEDfxc10qTUZgWxXxwEmPWTUX1KDLJ0uk95u3b8q50nCHjyqPBwECHb3ABKDYEQkMbjOqTnTDC2A9cOgZ9hfuG8edUmLnjmaJzC4a+0Q2MLMvEoh6oEbAj/Yu9tELFewEIKyHPBm3bsP/CUA17OIEoD3c5ASgln1mzKiZC9bzHBm1jihzpo5xRq9HKI8wRHEakonAHDGyBbgiA8rY2QwD4sgRETqjnts1esGWc4/aKqtHL06zIDuMIyVHf9aHRziu/8tz0nwxBXtOxA6cB/+qfsxKlAZVum2ajGaxw7D/Yd3t9f27RY1Zz8uIv/zTIUbib+qXbMVpimGZAckw7bYnW2G7q24IZGRyXLjN1znKslwuq+rT6esdpvH8xaelHMq33chKjzPOs6kPZA5UwSQDGYtQmpl3it40AbjVWOXRdan64L5gnG/nOo6eOLMW9wl2/iOnDsvV6wu+3jN5sKxDBvSffvc/t8moPQDKCtFTUegd4NyWEmG7Cq3S47KSWdAXK4yeE+WRTC2rJFLPWNnssBm4ZOldqG7wgu2RVTebSkVPIBcXV76dFgPidE5vCb9nASPocO0XdlZ9lwBEtVhl5fIe7Kg6N+i8k70EW0z7XL8fFhDSQbWBk2qpNqiju10JQOrM7tCc06Z06VUleGZqJeVJQGOwEbgZ4DI1lfuvKwD088/rLhSfLoDtSGjlgwOk1R+qYyqb+wWntei8p+pwgLTsUSVU27n9CEBKk7ti8Nx13AOOTO2Lg7LfjeYWmkay9YsiuLA/Zf0oZUAnALUwdALQCUAnAFXV6WcBIK8HRGYRkWxExSIb8khGROe2xPoW6X+G6D3jdzR8ZWHnZDlkHZmNq6diHRuhEbru6RfLnClTZjIger5ITdW4nB9FgzTzaSGgIZcjvlgOg0AdD6MRNDI3bvPDnVYLU3B4feXupVrKovu+DmZElsvthfRtqkseffVdt7eMuzbwkgEpr2ZsKg+3LOKyJS4rmQY9hGJXZixmQGQrnDoio++XX67rLi9MaG+/fe6V0jZjk0fMaXP2ufLOWCWaI+iYoKz5GXqNqa6zv6heqIVwVQnKP9mOvhVNJpnqZFXNz3O+Glfm5BIxPmf6vX7E9FMG9Jt1SdbYsZ1g1Gcz/TYm7EqPrlILpxqLeizdzlmFshDMZ9Q12dikwVEIemU9qkTeY9oPb2rksZYrJRBYhaAXjK5sNa4BSPVHlYPqmIWA2zRz4qGAK3O9UwVynapDWrVQ/fv7+t2mBnEdpoJDa5iBwg1W1eyhZtKvKyXGdY0IHAQg2zCkxtjFTSBVmQngXKqEKpiBWm1gWaRdSeUzYFjGqO5S5ZGJ4MtfVwCSvXL/5r4sruqaeSe4GeD0PtssAyOCFNXmCEDcC8z1oTyTBGRgQDDn/UwF4wDN/hyjxDNiwLWdenalDGjchyOZ2fYFOwFoFn7a2I4TgNqF1U4A2jefpKv+BKBs7tgye4AMyF0wUveM9UTq5meMuLpPFYwxMGoYxoVkVv1IV8liekboC2PxmkhUp47+7qlee9oygjvgUN6aOtP88aPHG4sR++Do5RGRcT1kQ3qfnhmOph7NuAcUmR89bnEeFCm0vqF65nwyUvmtfrFmc11+1hb3PUTh8bJH2KPVoaCgRLIVlsPMi/ubif1YBYsMyOzmiFXRm2pZo+GZbGibx7aou5xj6PZ4sRihf/WruurgF1983njzOFJbPsV+zIA4NYYyT3ZDAKLhnoG79IxGFYzqJmObuHoEg3jJWFQmyhiZC/tW7DNU9TJthGWN6dCY3XNcsV4LE7MRupdYZEbsoBm94/0IQFTBsmUb1Kj0LLSLZK0r8y10NFs+VHoyvWk+p7rCRqSBjd6JWEGmqwTAnWI/fqCJmTqeLb+0f2SrB8ZVDf0tCS3VDAbhOW8SNOeZFPcoCI6CqjzSk8ZVCvUNbSeto7GZYT+QktcVjIrXByoYWQ9VycwLRrAgAKl+2d60+xjUVL+c3+X0Wa88d/mpWhAUnr/Ygyg//3z3QEluOQi4kxOAdG4gpZtf5WAoAtUxn9P1Thc+l69RmV0fyku2EL3K6jLSHsN+mbn+LdPs8/Faj4RE9cppHNtM61PZwH8CENypPbciQZgG2EcL6zkBqN3j/gSgE4AisPVASoCUAhBHwSMkJHMg5fI7jAOKKhjVLgZ6GSWPqCmNrhZ4jTpEexpYR0yANNYsg5VI0OHcLn3700+fl0c//WQP/FNeXAc0DtJDQ0qskdHxHxr5yYBcH0rH5WPeop2BbULjvt6hCqj0+CwZkM9lWLdxusQDrQyoqBkrA4oeqwyA9F3OC7MhnIb46AUz62FAZWRAzj9VS55n7IBtqfRevKztR4eJ4oPolTRzJnsT+7E6xrokk1MaZD00HWTMiHngVB2lmTEgaQzOGxlGj9FnLIX9u2fCiOylZ5LJgObo2ROA1k55AlCrgp0AdAJQZDEjOzCfn322AaCIhHQ1Z4lT56QOXBJd7QlkQBrhucQkWQmX7vS3evERXOeGI4xGFBpVsyAqAo1HZEbp0kZCQy/tLIX1fFLD9zVKv3jxch1Bl0XF1sW+lBeOzv4WR03lz/Wk9xyCr9gURjC7MaPRujfaMI6DLNAMiHYwOg622BWsWy0g2hnQYoS2G355Rutb61DeaXgmI3Ud6Jtu797uHkqL5TbLZUyVrvkZuuE5UZfhCv6m6s71QsZY2vJ5teGJaX32WW1LyWpWDrIr2oAYE8RyRFsP+1TmVGEf0fdZVrMtMSH3F5WVUzGiTMzYZSLQ9IBkBmCytEZgtG1M2KNivE4D1BEAOSOc2xKnZTBWwZ4Zq2V6nwDE4DHdo7pHuknQcb4pcKTA7JycFuJzqk6XwX4GHWyn8/zlBiiqJ9J2l49GTOXbNFzl81rA+o1zuFRmAlCse4IO6/XIKxIHjSaOxQbpRQVbHX5lwbUNgOAp6wGQypABEDsx61h1RrWEdUCVm/Oj3MacmkLvlNtSdeK6oHnh2TIT/vnzOphocPQgICAiAFqeOVgRgHSdQaW9mKBMxaF8xsDdDIC4QBoBSHmkF0p/s/P3TCkRNEbq1QxA9UAtS/sEoLLwe13eNAb7WWhPAKorPp4AtE+qPQGovwTrVQDkOCC+dGSMyuIE4mjqtKRO7KPKZ9u6MRwd9S6Npf52NMJ5VGFYP0cej0D+djYtgqMq2ZIBiPSWBlsaxEXVX76sExjL1imbOrbvXhmNrlzQyvRZ71tlkwrjpWv1yxHf5aZKSJWC+aRbm+EHNM5nBkqOnlK7NnUMTKdMRl0XX+N2RIzEVjkYAe5vKb9u4yMG5LYTK2D7ZSqeBgXnk3WgQcT1beYZ3f1+T/Usg3Npy4X1WAWTzGYMiKokZYWqu+qa/YdsiCqvzxkfxP4S3fDZekDRCH3EgI6YTo/V9FS4GZaUYUjqhv+HP/4u3bC1l0Dm+eJcG9qAuMAS1TECkNKj7cYNRvsO4zjoSYq7b5LC95ZwUGULRAikttEobQstwY3BftVWUAFI9h9vXazdRN3JelMDSOFVTgIQVTB6gBj3QnuQ2ZnyzuBCqpZsK+WXYQak6GyzYvdZVbBHAYCW/Vg2WfUzAoIMIFT/zG8PgKi6OHGlTRsMAx15PQvwjPKhNOPqAZax0pbrbHiBD21AjOVxvqjKEUgJcHrG5Y4djqoy492sasXtmKlu9uKAXH/sr6JHXvUAABExSURBVJTtGWIRgcvvjOw3NMnwXOllNuRUBTsB6MPmIj4BaAlEPAGoMNsTgFoVKwOPewGgf/zT76e3rNcHOapm1J6jqUZ1qxbRwr+NEhqZk50tNCrQyPhq3SqmGHLX9XFJQTXyMHbj6WIE1VG8KOs5I2qJ0GYTnHHOGBUaxBX3s8XsLCOop2IoKJHb0GRqFw3JVDPEFrysqX6zyZc0nlK9ipMvzTQ0MvZG4jjCNcbK5eYWEwQwEvvxgl27b+zSC0b1kQzIIzWNxGQOZGdqGwKA60P17vS5HhAZjurdEcpuD36nRHGv00heKBJ6mYKho67BXA3S+h4XRHN9cVIr1T4yI2oDMTrZcqb8uu/QU8YF/Bj/xEhorqfU25gwa/fISnpe7qiq+e/M8UM86DGgkXp381MAkD9adnpcbBo6IgBlunEBr/VlVZALXTrZotvrEPhwRjIrm0LDADAD09Y55OL0XlmYaVzWQPb+WFgDmUZoLj9R0tt2Rr3Z8qWthtwJaNhmY/SW0VA9ZSrHo2W/L7u+X79+s3l1qHIwNF9CHtVoCqHysgPPvneZrrsNFIa4LTyCqRjlmVVNoxeMqw26rvWsOpsBKE6V8HXaEfUOAYhbWHO7Yrc3bTA0DjPg0e3KMA6l6wXJNC/M60OrjSmfBKBsuk8EnewZfd9lVX6dHwIiAUh5m1HBGIjYAw9fJ+jQI5yFB7TyEfcGrAvTvX+/L8pGAOrlI7UBnQC0L3VwAlAVnROATgD6RQJQRT2j377GLacVFCq9QuAX2Ov65UJxPZIxpD5OJdgC35Y0PEp8vSwE5W18vsG2JNrJQWvT6GCIfTOhEotFbV6whblQVTCzqMvf1NxraVKXlYGI2lnU6p3WRfZuEm8WVvLN13XrFDEgq2BFPXhdN/pTvh4usTU66pSOOsG2BsTt9N/19BI7I+h57feuozCgdecK1cc333xdrmvEf7VuKvh6+SZHufJ9Ta3wTP4FZsgeoxpWnm8YUKmc8h39MM6KHiMa0MnAPFIXFWwNe9CmhwwWdH3rE2SzTHP71tKGZrYlEHCtD6pg/k4ZWFY1v7A0MdflKFMf1uBDqV/aGYPfroUNMs/larlxgbe5CWs/0ynAc8mXv0UjtFVxLsmqemSwLgMRyYA2trotksfFDHZLS5HDNZBUO+nKfFDaG9epgUg2ssBeOoeq/HiLqp6LvmXaen5TwWas2BeNsTYq3cJlTeG14UQpP19ASAdVMAmAl3PgbOBq91llfEnElfuXv/zlgf7pKDagb/9ezlUBT9dOzGUaLDj6Vblc2U+XrZF1aFsZrQGs4/li03mybIdchGFpCD9bLqx50fVGvVsbT5n9frE56Pju2+8225TUL3um3i5bvex0e9/Ol+UW1f7009op6prFq2tYALRtG7PPK6r2h9drfXyzLfD17ZIHAY8OPbO50wHSmt9ViraUbd/TTPO89lrbbEACoK1B9vtFVlaPmMB7W50AKxm+kB2lExlOrx2XzNjWn14+RRWI6lgWlMgQhR/khl+AWEe2HIfqt91brNZ1qf+1vfWjnVJ1CNgMXrRTaS5cJsPlnXULa71rEFSZCUAGfKqEAh8DEJd0IQDFmf9OkwMIB55tNZXSXrWAVe2rA7cGQW0HXq9LPi0fN4vcvivXqUK/Wbat3qPpl62tVwzYpeNy3R9Izra6iwXuBKATgKpx+QSgE4A+BgDZDd9Q8ODH78UYMK5hM7xJdVlh9wVW+X+xUF3u2MBRbWcXT/Zwcm0hs6Ctjn/7t39b/lUG9O3CfjTS65ARTPE3Fclly6m0NroHnX8uEmaWIU/IrkLsC4m1C0jtq9zJLMsAO6mHOr4JO2h6T3V6Qmhw5DmD+bgYF3eZKCrYyrwYo0SjK+OiNEpxVr3ySIrteqr1uO6uuJyXIMN1pCwqG5Zo3Q3uOwPSfbLDbP1m39e3OG8reh3paeF3s/WfyBA4+jJY0CM1mYveY4yYPV9iAd6YUO8xOt7p0MNLJqU2s2wpLwys5RwuMzJ6KDnXLXrBuB4Qd+ng6hFkQO7DrYF5ZTSLQr2rXcu2Sis7jYvYZWozPX4qm+uDxnc6ONj/KFupEZpxQH7gyGVHu0HqEcA2uLKVPIW+7aCvl0sA3ydWOZZI4ser7v1kWV3QA/G7hQLb9f6VVLCvvipy9p0m460eMQGQ7Siyxzhv7xcg2goLe8XWUZbvSfXSIdvLi1XlUeexaiY1zUJVGmWl5+8WWurtiiVQsvfo+NvyK/rvTia7Azu5zltQk+5dabDyxShtuuGdB0b+EoCiG94CKbUvenJoG2PemsGHO7wSgMCQpH5tsrKWy+XIAIjqMYU5ApDlSULLjpB5NNlxaEeMda6/WW6+J5uP7T5qX26UQJuLO5zy5DrldktxrmJvonUWIiEwdNsXr/FqspAM0AuWARC9nuz0bPet7h5Jhd9tXBw03D6RaFiWGOZAACKw0wZL9zwBKGubmxOATgA6AahSvxOA9t1eBBw/CwBlbvgYL8I4ATKgbFpGUTm8cNUywttL9byZbbx7xDSSEI2dJudTfbWwHzONuDYy32VHinTPI6F/GZRo1VAGQG4MZ6peEH01tmkE+H41cmoEsndOax1b7RL7cTlYl2RA8XpmaI2b07kdGFjHLWmUt2xaSxbzccGAVoZDFUwes4W4U8OprC4EJdLYnS3PqhGWeec0ErMCBlfGUZPpc7qN217p987NzHy/ZUsfirdTh5wF339fVfs4o951ShWWzIXBhPQYMZi1eOpsnF5/9S3OM6QROu6MygX8euqhG4r91YGy0i6oktsZwTJF5kLGRgO664OsK7LQ3nQQClNRaf/pz3+4iISOKhgLxo7di47cnlko64fVbvFcW/iuc6i49q06PIXKhSsdfVVpuJWL1B7OH+K7PaC86EHLBao8Bp3itVtASAdXcJQ6yGjpbxdPnA4GAUrXt9pVVAmsn0xK3HjZ1ozRjkKB5JowVCMYUU2VRnnM1BjWSxSA7W9IAYNBCUC2DTUeU5EHzx1bBpzMS0UAItDEaGLmnfnMAuXYcQhAVIdo86Ma6PTevtuDA+U9fPWqropAGVN+M9MEB5PYJ+IcPJfF1xl0yY7LFRE5sVd558BCIHOd9QbfXfa0Y2sdTDSAZOE09CYy6puR3vR4l7SwSiZlOyMA2bUTgLCd8QlAtaucALQPcicA1Xi83fW+L+52LwD0X/71j9MMKDIJMqAGgT2yay/0lQGV9XcXdauwCwWALcxHh66RIWSzvMUusv3E9U2+23hs1jxwtKb6SJWHDMgz3cmAGEZfdso0A1p+zdL0K6ZUR5jdq8QRjiwm5qunWvg6WSm9D2RDHFnVNlS9Yttl9eJnbj5426HdIyb2Ywa0WwraVJXHjHXQg8cRlCoK856NlDH//Jt1HFfM1HNUkfjeu8WJ8W5hQTrqiF8dB7FOGy+hg/y4UoDioryDLM6zOtc1Gm/ZrtxFl1v0iA1Fh0JMh2maLVVGvAcOO67n7Zu3G6PSMwSXjKWRGdGrSwCKZhvWh+shZUD/9X/9qQBQz+7DSowJpB/BC6XDrQAkj1jr/lwXA1+s/RtwLI1KVWfTe5dO/4O2D14FZfvu8reD5kpkXSIEaUdbnnuyeLl0SGBtt6BqSHftxTIMqw1ItiBuL8RJta6GaPdhY1CwMzVN745AlYIXbSfZu/w+22+f8xVAZeVDBX7WzscZ87pOucjsNZxYTPAkzWc7MQexDFlHp+zq+7b3MC8+v+gEKPie9h4FH4ExU8di3+nV8ahT0rVf152qg7TOGYrAOnGaBIk0+vpH7cS7AyxBJwtXiP2GKltWDtaB7k/bgE4AOgFIAnMCEFnMCUA/GwD99//zrykD6jGfnrEr0s3yd4mfqaIdjatcxIrvkgE5Dkgh7a/tOcCi92Zu24izDz17TBDikpj3bTY8FtQqcUAL3dXB4DIyIK7IKPazzwV7naJ+nOvWY0A0tGaqU48hKD2Wi6Njjz0xD9v7nNfECl0VdAYlavrFlkcEZhYgg4oyUhvIhiIz6RnOY96j3GUOlD67X0BnS4B5b1Mly4gsU0/SIN5TRbL3XPe+V+cH1mkRYuDcJ57e3owBxaVClEb1vFUVs6pd+9QKGvx7bIVMJ/N4s5aUJ7LMGQZU+q8BKHbmrKF7KlgUgu1vRNEy8pdLUUgFogpmOwp1U056a77FKN2YiUwd2wvVeN6aqNBVNdNcHzc6v98zyEn9yqhpDP5zWSOgZJ4eFqk8z/kSSaVznZ6e+pUNIBedf1tiZP9IEbDVi6LfTfUFAM6ASBxZe3S+K1O3vJECWhkbL1d5rCBSP6TzrCMaPPzMpp7K7AAQHpWPKjRlJUbN9wA5U0kZILzN9yuTqz1ZNE4KzSuV7XmtCpaVO/vKCUAL0JwA1Pohbk4AOgEIA4uA4ycDoP/2v/+8rkJx4Qy7AKwLA976RO96pMNZiDjp69bqKjyWwyhGrW1ab/A4IJd0H29kp6URIGf29Cyj3WooL8ZVnnuJhY6X4yp1dP3ykWE4jqaXpG7cRiOCkLVVc01TMZo6XesJRujdH9b/Wk8tvFaGrn0+HWXBlFsVVRRnZzp+t0esjzSATPWdYaGteEIh7MgcGRPfjYZ43Sv9zSuoLL9t/vdW7qntPbY8kvvI7nttWOQ9c8P3xGpWBRs1Rqyskb5Puhsp/AY0wf4w6ogzQNBLY/RuDzjie72Gn0n/qFFZX6N62O4jEroRbMBR44a/OxYeZq0n5KNyx065g8pl8ECRQwR6Z8AzK/O972T2GrbPEUhldpcIQFT96PXbAGjNWNlWqQk27QVT5M1yLRhNq2AnAOUVfgQCMwCRjWwnAE3DYTNaj0bcmYEia7MTgO7WHkdM504ANDvKzD4XR4deR7xtx86q8Zq0Rs/27vcYzAwDOXp3lJ8ebb/mvVhnjQGb7KbnHduo57wQHz15lPefDoCkA3T5/k4OszrovDbTBllgo5KL72YG5l6foymDTMjPv3u3L6EyI5895tcDnVu3UcaAZoFl9rlZEZ3p6DOj3eh798VujkBklIejcswI8Sj9a9PoRjlvtrfli5nadU+q2EcDoG10LN0yBZ1r5PxIhjNWMKuGjxhFYXMOFF3tmPrbzVdVMBuE8iVTj9Te7Pu3BR3KbmoDmq3w2edGnSUypIvR+cjdvj58TYc7AeiyRU4AOgHoowBQNhu+S0onqSjpfDPAYFHzawbOij/7/KT0/JDft7m4YN3bhSzn/nTC1cOla8p0BLIGyB4lnwH0a9lZD4A2l7zqP5kxP5OXa585MvxeM+gN6yDEAfUYkPN/9O2ejWlUdjKXIuWdwXbEgBpW0cQh1Tul66L9ekZllnXmmVH5ju4r/av2BTvs40nF1bVl1uMuvTM0zFCwOhkdsaTR/ZJsKGdjLukECmaCG781S8VnOsORIGeC2lyrhdz+bwBofXC/dhfx67/7SwOg+wK9kdwegc8ROznsl/vaBuyNqZGf9p0j9eqa+hg9ewIQWu8EIELPuj70hrCIG7njYDKCrROA2hrqGX4rszlujJ3TN3TglwNAvb3hXQVTnTIyFHbqhAHNpjnKw2w6o+dG9xtxIAOCCtYTg7vQ9qvyFXr1UDA7VL8NQtyX43iwLNHReMpGKHKH+z8vACUCqkkvk+aGrJhHhugjdjpT7l6+ete3NtP63isbiuzmLqpWVtZZ43RRwX7zh99e9J0RVRxVeiPEnZ55m2+MZPqaDjt69vA+bEa7jhltROu8m4NM78mAXVQJDYrQqOR7J9qqO613eHl6SZaZ8fx+fbBew/V7ZkFH9T0r0LFIIxlrMbgtUG/e3Yw6fc3AGdWe26pafWBbZWtd42mTFADsCICO6pX3XN9Kb3Yy6v8FLpobRXah/vgAAAAASUVORK5CYII=;imageBorder=default;rounded=0;" parent="1" vertex="1">
          <mxGeometry x="-90" y="403" width="140" height="40" as="geometry" />
        </mxCell>
        <mxCell id="pbFzUUPsV5RpCnLdQWag-3" value="" style="shape=image;verticalLabelPosition=bottom;labelBackgroundColor=default;verticalAlign=top;imageAspect=0;image=data:image/png,iVBORw0KGgoAAAANSUhEUgAAARwAAABeCAYAAADxE6szAAAgAElEQVR4Xu19iZLlOHJk1pGVdXTvD2p69guk0fXhK9V9Cx6nBxAgX9VUy0wr0qy7mHwkCAQCDo8D4KM//ulfv3+/G4f+X49HeVov6j1ya9zzqL390aNHd4+pnPGnHuNZelO89tu46lXofp9rNFeRqkP1wVUubS4l34n74k5+pLyoFUwnrMNrv6aUH35t9Bn3WJXOqNmuckdi9I6lKqH/F1Uq3ZEFfifdw/lSp51KTiLYVfHPlndWv9bd5Ry6j3bwH6LzNKY6+Y37c+hQC4uOZgtzDOVA4+GK13MdeNy44NGKrpzyXGnHuS56Ox9dgOPCugBH0OYCnPPRMwMdzVR1rjLQLRMvC/h/IeD8ZTCclQU0sxMJ+Wiy65hGnVEZeXOQa5m9trczntKymFv5yQTf8ealyIr83HaeqapOrfU6nfBP1PZ01pUbju+afyXO0HRpZaKFzVGndRMXk19t1nHr177o9InZQO2T9X2rML01Mx/qanYq6xsghlkY98v6PrtCtAJ1dbmCJXB9vkVjk1Xg92CI1CHS1vJCK2n8M8tMh0fRiBhhWTZakmUwk/r+LccWi6dlR7dggzHXRyvgTCZS1qc1OeYOz3dTOYVKTyZV6Wx6GV/f6jd1bqc0NGEX6tiUPan/XgUbVtsblWsR/I4fHgTbBpwJ6uxN+bvqdtfhm3eUfuk7qeLmMvUsQqrm1fRzY6aZP8Bu3LX156eHBGZGkCOZ2kCdXulPPB5+Bu7KMF0wIAkgHntbx7/7iWQdL21LBafyF3+/gp9NBoJyJsZx67fv33RqoTrJvZ2pzICzuGYIxka5F+AEZq2zQYs6F+CkWC7AaVTkApwQSpltlMENwPmXBotXoc1UmzHeC6jO5KRr2/mgoPcNvFYgV+8rhG+B9f2Mpih99q798znj7cv5sXn2aPY9ruhpM6Zm8puYSvtt1aG5kdE0WzLt7fDn0aNkBoVBUS/Ob7rFpPJnTrnLDaC40wY8uszwIAKPHx+4ulJBg1XIJb0urCLYC2H3aPQ3M2NwNRnO48JO3Eyy0rRMLbg2Q/7u6sJMZ1OX4sxOUw91Ch0Zxac1WJ3MJWBArEk0oQMc9px79YRxkaB2NjS3+syRXQd/FVhVpIIy8Yoc/JNhVzR2PyzP6ncGS9zJ54M/W0T6d/qKP+0Ganzr85pGch08Wiv2KdwMmxuLjeVHOjpNMH+fNKr5dV4W95MMFhNUGXg5rFUiFGrtAMdBx0HFy8Rz7s9BEQE4wwSbo3he85w0UnoMCDlQ2DnNgJNANeuv171YSAw4aK0BpNY7kYL9VUEN7OcLcM71bn8HD9rTci7AERFdgNMC1/9CwOnn6ErDc1SVWYgGW5QiFsfxXYuTksph9uKX51m0Rg5s1qWb1N2mdeB6saf/lJJz24pNeoow0w0zC7vh+RPatPzcE8F4ETMZZq4JApOZmJ3Q5yixO7MIsuWnc080EcRjmVRTq+s5mumtqOWurk1LT+kFNlVmB2sy/HTISg5ReoFLqZ2uClOyZDW8yy0q3MtRqsLkrXxx9/qz0rE7jgLyUR3StTMbJaNLxaScTAK2hOKnKQp3wHDWF9fyySbUNsTB4eRidnkBi1FuIEADmN81q2unaLN+T/whB9mq5mQTc5tvMwqKlM7tqCVceQPM/OQto/4N4Kx9OBXPGDPbmCZ4Ni3q0yT1A8DJZ5j6b5opzdDCyoCnaUOTA1kB6Q039InfXXQ4tXkVEOoi0aXGdJG7tS4oLwfhpMWNY4r9OcAOssZSf9En0a8JHJpY+1jvKxNhMxIWwFl1na/MyYld/3FbNXilsuF2qIlZxUkm1QU4+5G+zpyk/4cA8SMO0MOCTn+8AEfG3gU4K3T+TwGc2oGVDbSzA1NB6fwGxOaBY7dsMZdmvNMxF3ONA39O37fmyqy9RW+l5txW3j5L6Za23JL2y+zSy4QsF4hkJjOj5W6Qtgxnnrm5JU0vjkvFKe23T+8sgQpvlNTZ2TAb6D27uUmm/t6JtvX8lqIyrAYHqHbGcNA0locv/+GxUvpv3JxWWtZSGY41ZtN/rBu7ehV95+K2bdSbZpbZLmXZM5xNjanDa2dyGExev/S12Ker2mtlGzpspHQpZ3d9r1zFRlhuK0AxNfsHJsd5yLbV6ZX4pmFRIGOWfRni8ZLd21YzQE3+HMipdBTNMKWyDmv7eGVvt9Qha89j3weE+DG8mNkpX+e8WwVZ7osibuzsAgQnzUORdW1U2EKh8yIzGtg1RN4w6Q3gCNic0jkbPZi0ffKgTitujHIdQOtimwVlgDON+V6cW5PqAhyI90YdDAU+u/8CnFVpWckvwKmpJg0vFVDpGM7/N4CzgKbPhILeqkAlLwBIFzMSU2COUtXBvDxvelkmaxrNFWzPhjlDR3Kp1gTa4+yNsycPmd0j5/Xdz7rOQvbV4Zmr8xd5fz5+/OTuyZMnUtCTJyNxjRiOSwmJZ9++fZV7vn39dvd1/Of9neBJ/b1U65gCyKRc4uI0Azc8ZBtI+LuQnFnHcTcricj+I0svHlyrsrIaHjMqa+tXer2+ZmWj8qzfV9jRjoWkTLN4skhYSQpjrOZaTBWFZUoHLhhwoJ1LIMOWNvTsbPbBdAmB88vYluuGmraX1JcE0OlRiQ4UAWU5U5GnWtTVqwLtOUgU9YD5SAO4ffqgyK0/yJ4p6jkpSZoinKn6PSIYCTIJOI9HpizW9Mgx/vEyvn77JkATgGPg8/Xr1wFEDj4k91sHvr0K+bkdjdfEMQfXeg935s874BMEcuwmcO6b0Wfizlw4E/ymksgHFmOHQcY7AK1f9KNRGHFT5NGbPceAUyJHUtgqG1TG36ORNIYuOz/se/pxuu8CHJPfBTh3dxfgLNNnuwzhApzCGZoJ/gBw/vgbtqfoj5lOdihd+QrNCEDtAE+eTaZzfrVPuurVVPyfaG2pKUdRylTY/ZE8gdO/F9K0iCIRviR/DYbAK3qzzNviVzuZF3FE5ZhqM8WmdHiYQ7bCF7J7MlgMDmY4T92kevrk7unTp/I7cjm+GpP59Onz3efPn+U6gw9+D4Yz3vOdVhJn7shGjZKF6zoiamB1ZEbn977QEyYsejiqsDCFovupe1v5bxyx3Pe1ETXxL8oV0raaV4WlTfLwZ3ncQWJnRHI2x7QcctgiLN6UIvKnDunyjCoGnNVkluoKPI9WwOmVG+smqrBCPKMpTIf1HAr/ZPgNcOBK+gkGbU9n0KkwowArJ99aKWdSQH9jbbzrESdbiTDJbAnx7MYO0UtOvJItB8ik6pS5mn0zzyxGk6mLKs3hMX52WQIQcm8VlT8OB5n7p/d3Dw/PtG+ePL17PPw4fnz58kVOP378ePdh/IfjyzCtvg1TCoeAj5tU/B5SZF5XVXpARJyTh79Tw6p2FKDYTwF5f5VLJ6XGIFG57kTagPss+y70i+K68LPIgE0RmhxphO27127SSU3/qDoUl0W+M05y1vPsxkixpzBqGZwOsCMIcz91El+FfQHOBTh3F+Dk4D2KVV6AwwDyk4Dz17/920pcGJl9Eho+Q6bskcosDkhlMo8HZX86Zk8c94Oy++yKv32G1NlSZ068eLcSdpeolEwmUbjk/BCFj1mB5hGaMJTiBzOpERSehbp3VvNqyCAoVL5MZyTtJD4v09o0NdWokz87mQJeIZLfFzh2zdTBbOWm1L2ZUc+fP797dq8MRxzx9l6wIgecDx8+JMP58nWwHGU+wp48ejUxnNIW+6PMdcRw5N2uTxv2tqPw3Vqk7t23XmvmXnrU5E43VTNn6mNv00RB6pDsB2tlQWvt1aWQbPTW9knwOHTvhCmjX7ifpFL2jKhenqcJds7TVjNu6N0FOEn3OWR7Ac4FOCWCTMiwM/pm0+UCnBnoBHD+na3pmvw2JOb+mbISduCf+2fgD3hiDsinw0/wjM6fDuekzGqjs759N38AZmLP76AZb6GyVlfMwDm7oTYOENVpy8i/72h/IdmupkgIFSM/BYeEjYP5ZM6Kru7Ve3TGo/naJwGqL+qde5yM71L4jFOuU3YvOWTxXIai66I9byszNNzreTP43WX//NmD3P7s2bO7+/t7rTvqbVVHnT59/iTX371/P/w4eg7W4wyHw+J4T/QHCXq24JkV7mdl9iHYXdOU73fsQ+L97L131ezgQt9/xAV24YB4poykudUrw2FWQTzYBREFdL4g6cXGbRJyKqSY/mieEZ0ntq9ycJbH468GULb9uhEiLj/66z//e/UGb7z0lS1+F8ejKPag6a7ID+P82YMq+IvnD0HrYUZ9NXouymoVUmerD2AdCvJ/1MEkxw7LsiOaRIkSIBwIwrQxoX2P/BF9KcyO+Zq/E0Dj513K+T4vKXNguHxNpLO8lmGSoC1SBwza2LyoAlGXyFccskM0NTpGK4ZNrqinR6HcjILDGI5jUS7Kw0FdPnz8INffvXt393FEqnB8GtEqN7VgTkU7ID8a/aG/UFjSwM4MnR3L3fDejIcFCNhRS689P93oN3uTfbxIXZr7yeAoTcBz1fTrRt4c9dQq07AwHVybsnP+bv1OYQn1CMDt20UQeXMtnmRZLCsQO1itbbgAx2QiUacLcC7AweB3nbgAxxi6SuSXAM7/HQxH4/HGLgiUhAKFaUH5AGN2dqfk00HVYUrheHh2f/fixQs9HzOqP/t50POvwwlpWJ7MZJTtnauzvmWzKuYb8ielA2PgXKB0XCfb4cxkNgMTkWeHmNaK6a2Gy8PmoH1K6P2gz/4pDTJ/wHAiW5fCyXKd7mcz0WdryZZIfl6SQAtjiE2bpnC8m4eD+UX/mIkLFgrWiQPnzoAg9/fv38n1t2A4H53hfBoMJ3Nyau7NOmPqbGmyJK6jZp9fryFkUrWDU9LLsGDTHbk4k+ldfaErh1L23rCAibUVIIpQdTJ2NotqcTKSQs+8XswqajvS5KWh0ObSeNVn9l3avjH1StCkPkCugFp39nNGO7Rljbir8aQm1YhS8f2aaJSijYbAylE8EHrtbADK6ybVUyiyRUWQ5+FVEDpuPcD5K1DENDko14P9INQMVowUgzbWdz8Tc8Oqr/4fU/bw1SSYoH4MqBx54xCoS6PkNlCiHYCSzaUElsyNqXkRDFyiMqpXVN/V3EhzM+tc10RxWzrAeR7m7vNhCqtJjE6F7wbH27cAHM3DgUnlvh2YVDEgZHzl4CxmVNpXFMyYCfdKtxmsRHHd18X9s+h0ltMltQU2NcPAL3XgrmOBQY5aSIjDrco5gnOLaq0CdDHJdiapyDRBqcO/GRL5nhR91p3nrqJP1D4e3xGMIrNZvKbcrx2uzDKmF3OdJdfnApx1IANML8C5AEeB8AKcXws4+PImCXWVbwrckZmdt5hJne2ApvvMWpbPTyZbvAOzpcG0Zsq6U7VPxWYgFSdbY34kX6iwG+wFNNl8NQwscGB7O2qUKrcHwCwRUScxl5iZ6LmyKmsHM7U5Q5dm8eKw7Ka2yURxZ7nm05ijWwaHO9GH05iWMeAnRKkejOHg32cWscK7339QhvPu3fs75OLg+Pjp01jmoBErsDdvE0t1nux6xeQB25gtVmDeNaXyb0ykoqcks5IzMsquMywBCJsZk8mR5snUwqgLzfr0gpmBFzPNn6WKF5NfqsYBFBWMlll1eb6EcmaTCq/bSdtbdRQEcTlyRHOJjLUvqGbUbGbLt8WrI/6cM81CyKUNujZHdJ/tX7HjSaXslAXO5o+Q9rkjV5nnFVKYmkiYt/jrJfxNgOMgU7dsoNXU/F4yJ6R+ARpU33GNv1rIoe0a5vaCs6Et1kztVru7iaYJ9VXBShstJeHe/hXAGcl/OAA29+Nv1ejvw4yyKNUwrRCpwiHrqtyHM1IZXK5FO8YfnbawP4wsJDMZ0y4hph7l7ByTZZDJBKbVn98/+3TOBt3cC2RMaeFWQAGuOmCih/T2fIB6NtI5uMKSNkHfonK9dPeA9k8tc1LHSTv6P5c22W0sO1XnnEC9JG0qlTA/FCLqJT0b1BfgxCJH9odcgHMBjo2zC3B+PeAwkjMCF2Qk8CxYJggckyVFJDD97UpYIVbB1RE2X7ZEITaY7uxgobXT/aiRL1xkcxAMJ2YYYmTFObij4XI9Zwc2PcO8mkywPeFtGvidphURq8uVZVwZjif+3Y/IIQ5EDbG8Acf9yJfy3zUPRx3F7we7ef9e2Q7Yja8cL07jUD+b+RqmgUvMaFM/eEaf2mSKp7lZKgNxMhY2bHo2GQtHnLxzKM8SXp4vDIZ1kut8ottKTfJgOmc/SJ6WKa7opTPviUHNZqIJp2Vf/sLSJrY2RLAuVPyx6i2uFPM4CqVSixm645Hah/mW8TdMqmiAdfLcIf53FMs0TzizKcLGFl5DdqmlW2Xhl20qNAMfiU8b2dHR8UJPnAPguOkhq9s9wiY2QXZKScazumgCo9aAs6GLmUi+Dw7p7+R7fN0UXP7Rc/aT6WW/B4l/muX9zADnxYvndy9fvNRrw4fjioBsYoTDccCc+jR8NzgANpn4B59USrv2GQ08Bh+abPxJfo7mF2tOlpOAk22CrBm49rKqyr8fClnCVgfxQ8Nw2JA7DEe3XpQsFMHbXJ+YK/xrmQxcAgVa8SOURbXHrS1okOBEV5tJnlRJXuSvKpNIwYC9LGf5X4BjA/MCnAtwFhC7AOe/A3B2cwdFDybm4E5jnoUUhHPG7RCZzRVmkdtUaa4aQedMm3eOY388HMjDjPIEOKxuD4Yj1FbrXrfXrImHwXwoAlVzdXiPmj25z8nqZNqyqSflSvMPDQ5MbTPDeTkSMl+9UoYj0SpzPIPRvHn7Vq6D4bgZpcmauVq8MwG5tqXPQBCbmbjef25UlsBDkg05Swf7DzKahm7dIHWRT8vxuK27oUM5Nlz3Oe+Ko1Qpzymfh9/RVJwNA2Y4pWrMzOmHrV7ZPTX3KBk+8a76moXhjRL+YibVIa2UYlgE7NGepEwUtFIxesPCrWtUa09TObEqVaDQc1XHbddbU+Qf2MwAGhy8nQa22XAw+fIFSX22sTgoKK3NCl8Nrpdd8PL9nbocKvgmAuIN2g7sSXGe3qtJ5UmZL4b/5uVLM6lGhMq3FEGC39t3CjjvR1jcI1Mwpxhwqi+tk+80TbTdLaNTj8r5+2iXqF2jLNLHWc6Z9X0GSRz63ffNZuc9eSDNwegGaqo3VzW2RjSrovoEXa92f9Fr25s54slz0b5kCvVHi7Jt83Nsjm3LJDNY63sBzgU4F+DoVGpIcwGOwscZ6/67AcdRqgh8kn6lVDZRYX0Tw/oG7s4awI8xld5N+BzV0pmDDv6j0yC7Bqerb7NxP1L93aTC+70IbPlQVkqfrPL2Wex8jlrvqFWdhd9LsFBoMmF96UI4jcc6qucPGaUCi8MB0+mdM5yR9Bd7GoPhxBajg+FFjsYs6GZ2L52Z6jvPyrvB3Zljq7S05Tex29bxW0tMNr6Z1amye/5cWR7rbkRRhQ37u6sxckJuKxAc0uTormhkl+PF7+NdFva6my9Vxkt9wMOveZmOKWI4BXDaxswKH9y4T9Lb9ArPJtq1Wo4qTt+AErVITk5NnCuc5czVwJ1R3jiJNWHkw2GTDtGlr5EBnRm3ZSEpCX8GnJQS98gtcETynkaq12+XSoDfHWgeLKMYUapntjcO1ry5SYUolSf7ISTuCzbFpGoAZ472Fr3pmiXkYaUPR6xiO5aaH5aJp9G7EwO71PrWd9cy16d25cgwLTkc+XpOB2CjvOB3i0prCzuAiXFGeNf5eRhMpPdOwA19GdEubh+N7zA73YdzAU5lOC6PC3CwtCEZzgU4qhkX4BBQ/gzg7E2pHt74apuYJJWwY5zE/TRb88SN80I7N/NOh7Y9v5m5hhbIyWSyct22euAoldA/p+HjJNd4zau/6cuUZ55L0tLtjLuYgmSudA0f93dlgR5jKQMObBmCA05jX84AR/Ij24cajOa9rRZ/TyYVmI9vKQLA8a04OhKjcp0O6vDWXBHmQ0pbFORHOEmO/sKPbzCjdm3J62TyUGVFN6pCt0V1I6eagNWk8kImQnteTbqjH4t9EcWxTG4EzTHTZ6SGK0HVsRTXaZsZWAPUfbyDAa73Uao9+ljNa4WKTdXGG7jBPUWjoTVJhztljlI1gryB/nkVMTAdcHjhKQOO7uCnEpTzkuxn+3VAHIXDkuqT8MswumFMnQGTKkNKjjs3TSoFnucvHgb46H44YlKFD+fz3QfLLgbgeOIfbzGq+/tYmzaVWlXG6lWAJe86o+ll8LF281hPbez10gvZmOpnI3mHK7cBjkyhOjAbjV7aV+659YnsjHm+K9HRinJlkuLUlaPo8CRKMaEK6bAK8KeKyuQuptkuSnUBTmDoBTj6nfELcBIRLsDR8P6vAZwN2JTCoX40o/frnfZUg+a56EWe8eqThOKb2bU2naaKibbrbJMX8U5f3c5RKlyLD8xtGI58GDBmfVQsGUAnj50Tb55lOxZ0SIZMcLwJNs7RHhzuNMY6Kt+eAksb3FmOPBw3qbA1BbalwIF8HDepPEqH60dr29LKyGjNbtaczYba5xvdocs77cqZfmWZa34W8WoqsJbB9gSVaR1XgyBdIUc9fFOrWyJW9WRtmWhkKF1aJHNhyYqJLRf6ydZMRtjmfKKsT+17TiaU0bck/snL/PEJGuzPGh3hMB83Zw84x3QyyFsUdjZY91RwY76RGZI7F47vaFkSoJpUZkZNO/vxfjhlHQqFjSMDmcjr0oYcnW3cjQd3fZbblOfijyLw8YQ/N62w2x/8ODjuF8DRtVQwqXwhJ8LjsVUq2eU7wFEAyQF8Rs/5/lVrdsiyG9B7SGaIENcECbMAZODK7tO6m3RSmAktJNDF/XgvT56WM72HWz33i1pRpfVtLXmEc/Q2b64gw76dXGOYd6O82CYFsiGd6BP/LsARIV2AcwFOHaEX4IgEDOWYQRXn8xng/PFP+PJm7him/GadMQp1lPe6CfHzDGfu0PL3oR0xgfV2ljlyUCsSO8PBplTxHS2spTIpfoV06PMumQSIdqcMODEuv0WVxp7cWaYwovN1MjxndoVJ6O2aLKll8pINj1LBnMoN7sdqcdsKAUzmnW2iDoaD/3BwHo7uSc2VpD+IfncztP68/rI6jSc23c7HfLHnA1mzVYEKUxyPRwm41RnOpj0ywNqYYK1TPk7Mh4yGauqMMmkDrihpatqO+XBbZwZ9K8Pxd/I7lq1FmCmRWKtLIfW5fsaI9Bwyn7+8KRWYISv6w6tFNEvgajXBOiU71qGKnrt7W+Ef0VqmdFYoU2nfAwcD078+gciVt6h+W2rOOvaweFJ1gFDu+Jehw0N5cKNKhzat5YEyDeTYdgNrxMyH46YVTKqXL+2LGsO08oWC2Eb0rYfFx78FcHzd2Aw43cDbThD9cFEcOjci2gF8CkZ9usAOMna1YBBHPbyJPNOLmeA6xmBFE4B0UzCDOnZCV+iLJMewegSpvY+NDasiurnPGtDlEPkiP2pTF+1Cxsmc9HkBjs30F+AMH84FOGU8XoBjABbANHG8nwOc8eXNxblp+SUzFW5mYl7EpWh2PmtVYCXEPjGjtiVPM2W9z2FbdWmmjv553wd8CtecxlhT5QwAG4h/sRR/2ejdV46XHfzo65m0i1vV3mla3rS1v0y1LgyH3PvjQZ9pUX9nOL5ZOhiOb0/x/PmLMKmQd+MmFbapiCgVNuCydovpbqxXatIpoNyzUg+m58WxTV//1Hu0jfMnjtnx2RGic20r2h0V3AYiiC3PSaKuPJAFs5p2j2nsXGgP6Doi4xkkS2HDYa5PUc82CjyxGzbprWVb/hPgMI9Q7rQcK7l8Jl0HS+82ZXIfc3+5af3or+LDSXbL+7nsIw35avFXuDKS4vDLdp0728TtfVtzSWrdkuujq0rlDXxG2Q44+CSuD1J88cB9HLK0wZRi+ca2KwuFzjVcmD3Bu4N2A5XbvB0E0j/Zqg6UdMjqPfBFzYAD/80r254C/hzfZpV9OK9fJ+AgXO5rqSRI1Sj3jDBMn722SDHIb2Q9ia9JQMaedOmyTsDRFgLwODRfvurhwioAfDxjscZUM2OeomjgsYaR3vCXP3wBsH5Cmb8936inTO8MPvSFj9An6FBeL9EmYhXRJ9N+TDInLMp0OpWlYwS65voGl0k/MHPmoaJ1F8ocXy5ZL+4CnLEJF44LcO7uLsCxgRIjpvXzq4OevvxxAU4C6yng/PGP+C5VFeyWlhGj8HuUEa2IxmUezdzJzicEvoUrRztvYTp5T6IuGI5tVPXsaTGpfDU1auW0V77PxBEr33QLZlSzMZc6F0ma1MQkQbsoXzO1xiUvqLY7lmmISZWfX8ZjcBjHnsayAZcCLViMf5eqfHlzfCYmTEnaokPe3HQoBuET20UQMvXvYoFteX4T/vVIIBhWZQNuUqUJ+2V8HjpWrI86xNouMB83bVE3/yRsQyim8JrwwDwac2Iqo9xh07RsuP9EEyt5SQxvyg+2xww+IogCVloH/N/Zg5jutsMizsuWKMyYKTrcfbXW2Tj0lJcZdKLZ+eyFTReG408LPXNULmKMMWVt0/YR27EGP/oLAGeKOvQV6Qc13p+UaxrU/if12mqmkflxEnbkzkcfcATjaHjOEgp6NwTim6hrWFyVCNcciCA277iy3WhRCoTOtXa83oqzkTFIOVGqwCvR5L0PLI2AFTr1KZ91n44BMQPOKwDOy1dSRyzsTJPxq3yDCgcyjctaKvsePAb+t/BjSY+H1kWy4QAwBxP8m9u15ocSdaAqwGMtV34TLE1YyMjBBPL+/Fm3OZW1XT4gR32+2HXc46DEy1CquV40R8rrDQz/odH1cSk++DjAxhMq9TvtCu7QG/cDqqcho5geDS0yoMEJ8ICccfAXM7BfUewyieoZ+KCt2KtJZTPk4VuJjEW3ooekn9ZZ8k8d2/vE2PThTOaZm9ZUqJrzerB5DCnPZvYFONo8R3QAABnZSURBVP51gwtwLsAJJLoA508HnGDJZF7NaBigNrHSTOW/Ic1byidKyXPNxvZa5yfGbMHVtmpbp7I1DCZIbKI+8lZyQ/VkO3D6OnsRqlsiVjaD8fIHYjJzDk/OTgupzAZZUzoGNLe6zly58l2iVMbWPPEPJtXvr36TR4ThGNPALOwzK9iNsx1E42LWJNOGkwA5cZK/aAqHNb59hQNsx1emI5oT0R36tPKTUdc0r9KpCkbDn60JtjPYzWdjZXB670wtmenV423TL1mDj2ofVMazAg5U5qmZUYho4jtfOOCAj1yn4Zh3HWKGAYbsZIZlwN/gkroaY/k6WIr3CbYJYdPJWQ2YDxz7OKTfgvEpw8F95fPM1qSMnZVhY6pk4xJmn40RzcNJdh06J+JLqXGyX9FLHt8Y+/FdKhu0JcpCT0pVrBJCoXxgTNw0/txyVmooVVrblFQ9KJq+OBSGG8wNy/Pe9CtCIFvclUU2UY9kOXwoTs0rNDT9NhzGrP4ct50BSHE+AMoVhBWw0v3eDF3F14M0L45jEyU+8Wu+HESofv/NAGcMEgxykfgQfPiohpJCkeW6pAPoORTaBzVHLOTTOpFKgA8JqrkEWt2ZTjrYrCegfNEP/H2wUYZdR7180MBs+vRRF5YiX8iB6NPH8cE+W3CKTd95Dx/cC/m7iSZmbas07Efr9QfmkqcYAGx8XRoA5+UrNVX1axj6PJvfbMDxshkxOXxM4V+KBGafDOAP03YArfUP2v/R5IH1b349zMsxYfBnhIvcvQsm30nxxbIPJ7MWSXoc6s928FalVZIq+wtwbEBegKOD8wKcC3AkCvdnAQ5Wi88i5jwBnhDiPlSomSkYvTUhcD3wXPcdq8WaYgro58x2StGCne3cFRe5MiZMRFLS+YcolTr/ZPsGMznQ0tiqQhyU7qgbtNcddXCq8mdi2rVXmRx4XNFzhtY9D3p+xHB+Gw7jVz4Tjw3VsQmXHrRQldgOZlj+RpWzPMjDo2GINLkmgNUFm6ONyoryYua36JLMxNQPD8/VREG+kPeDOCCT9IZpi3r5lhof4ei2mR7m4FdyMqM82bnQzWCYGY1WitXQzOJsMsI0hCmFA1t9+GeTIdOHUWccYMsRYADbsraCpSUzTEXkxEKLWUk54jgn3XJnuZhRZEq6SQV5+ETBJn/JnWIjgcZWN2y0XhrF5EgrJzyyDjLr1f62Xye/gIzSjFJxjRqoKGO6HxR8VU2z46E1/zoZF+vDy2t/YnBKO/Q5BhwAj2/Lic3GPSwOAZYoFQFO0FgADicBBjWm8KaYB8cCOfx186PPRJp0pu0SH44Bpg8SfAjvhSX+PZcN1XXwYFDzfkK8St43VBfldzcIiRx9zP4fBygMEPdHyGBr1EDiF1aWLDZ1c3bUy9d8IfTMHyf0ZEUMCPg5cHz88PHurX3I79M4d/CJusDfM/b2waF+jbU25RrN7gw4MFGRrY2DAee33/9PgA8mKa/Xp7FGLaJqQ36eob5mKatwOIwOnyEDjusZTEf31aBvfMLj9IFMz6Dsd24zTFnuDx727ls9ZDj5QIsrc2+TuKEvF+DYnr8X4KgWXoCT5sQFOKIQE/v7JYBDkHcraSDP9W4JxG5G371i8mHpAIj/WR3TrmvmTZ0rjg7N3zGGw45ArKXyjcfH95vyG1Vj9z8ykTIRDTkiOnMieuIzmCQH0mdl6oyTNSs01C7vHMVFBFJ/mxWX2TiZm+fEPFi0SGZlo/4497bCGepsDv96Uhre4A5YzKa8vMOZD9r9JWTwOdmFJA0qA5EeIY9llk8MR/KG7Auowyx5GCYfDjBNd+rDie9mLhiR9zJYBMwqHPjcDRgPjk/Dkar/DnPD6ojcnUyGq6ZNSUIk+fIGbb5jIuT34oV+xfS3339PhjPq5WwKTl0/x4p8zxvi3RN1l8YQUjiNwQ53epZfRkUU0XJuKPmxmFG7CA6xmpRCmjC8e6QYVRylCqbLVAkF6g81+BOXUxfUpKLjVsCxR3QA5/OzWZWVMOUrL5v/2Hh92jptYat9A7NK96Rr5qttxSkmlVFmCW+qjwODxX0TEgUx21oT0TJRq4BSWeBpnwkmk+omU7NDX9dNp77w29h9oiSWPYzkMjepwkwcwJOAMwaygSuiTJw1myFs/UgeDgwYD0MjOZAHsJsNGOAfbLCD6rvPx4QYsozw6WQCej+Aabp/Cb60ZxZ+RoTII2IARjcfYX5kHT4M80p3L3QQAgBxfR1EcY8n4wmA0RqomAyGTH2tHYDPzVPI7qWlGPz2+28BOGJ+2+QEk8pBT7ZuNQAUk4v8UqnFlDwq/jDVGwAVf37ZdU6inuV7aT7gGUi7cV2T/RKTaOyR7nFYnAc66h0TSeKNsKGQH7lhAlcvwLkA5wKcC3CKw/VPBZwRpSp+nl/IcBxf1dN9SG32Py71Oa9gMAh5rb04qGDmiMiaH880HjOrR0eQV+GJa5hNc7YZpkLM+plqPydn5dorciZThOTIecxiamOBFCGEXng0QaNUKhvkw8wmFWbl+FbVMFm8fcJweFsOm+mhgGESSEKg5sBg1vb8DzEbzFzBtbLEwDpBa2T/HxXmpRCZqzOWRcSattEPFkF7MsysB/s8MZhOmlf4cmiuynZ5w6nqXxH98O691Rd11LorQ81viXkZWNHu57NH1RmOsGFfnzbq9PKVmlRwxHu9UI7r2+dPH8e2H1qH9zD1TH4wQcOsok23YIYHSxYns9YTkS4OSHhujUa+bNiUiHDSp533oVpa1ajSEmkdGPk02HUiZRcWniZVH5FTNdBN1In6rCPfq00VOwCP8C/sIeQ0WjM/unvd1jQJjGGg03ZgULqiK+Aow9G1VGpGPR/2uSs6fBwecWHTAgOtRCEav828fw63g0GnnJfG53Bl+lrWp5BJFWFxWtfkPhwAzL05yJ/y+WizJzyC6YSpAsDxTFYBGfWJyCZd9h0rXMsFnploxhmuHCaVcKuvsgb48IprAxz0x/1YSIsDAzwG+fCbOGBigPvkEECBwTkABeYLDgcegFBmImdiYA3lZgY07/aoiw9Tb9zkfhB/mG5ID7+O6xD7lmBSefTs/QC/dwaAqF+sjSofjQPg+KDNZEXNlFalqBNV6rY9ZTeRAp3MzeW58RjrVZ2n1xG4W1OwrGGjsSjulwtwLsC5AOcCHMDUfw/guNPYkFxBMWkZT7gd+dqxjIV+uRebit8lmpdJXv7ooTpTsekJJjV0nsGAdARiRnfTg1f9gt1gFpNZdjAAX0v1adDkTLwiE4Jp7+TMi0+tmCPZa5psmJxspRk0h8hES8YJnZe1Sb49BPJanLmZcxj7/bjpxMxB2m2mAm+1gNnUGc4HsJphFuB4/frN3TvfaB3rmDy5jb7TxT3GiX9iAsYylTSvYBbGamrazgKMzOsGRuFRIpiHbF65DJD05lEzd2CDlUYyHKI5ZFKVZQUmU0lYJaX2qJqYXYWFWZJoqQsmL+1Z6Mnbt2/kHAznzZAbjneDHXp91oTAZDisH+mOoBFzRu9Jl5SpraNqcXXYPSoKQ4LynlOD316yIoXKdZT6D3OUCq+KF284WWFYLIRsVK3a2lhcUfNwJnb9vXnV/QF8X9YTdT+KApXsUTKpFHCM7YxolYc9YX64DQ0T4rNntZIiFzub1/+UxZ5oJ7WV2j0nns0S2KUd8ACWxL/Yj4Z8IrF0IwFHTEm/Lr4dHTy45g5klO0mI8Dm7RsdMP/vP16Pb1ep2SILJ30b0lBRA0fSIQb79CskoCooqU9Gtm+wfhDTKep5H2YMh/VhKrr/B+J1AIwwtNRvdQeIueuLJREVsoijhv/1fpY7AxESEF1OMPN8ISfq7e2TnRQNpN+Pr2K8/k+VHz6r7HKVtWJ3vp3vjAmrrqhedOZNaaHeNd12EPS0UtdyZz3UcteRrb7E1fVSnsfkP569AIeU+wKcC3AuwOlgJq/9IsBhJsMrWIkCE7oyyO0iUAvLoFcULAynEjWKo1oEzcr0yLTwRxYiZhc2VCf22KVtHNi0wKzpm1Xh3JPFJJ/CE8uGMzKT/TLvpGxLQJsgMX2eo1Sxdk1YglMDaWwIxcVgc6/OwHRHMUtotTY7xXkFdzjOxUmrDEccyx4hkjR9zQUBw3ljDOc//vP12CHQkuqGDEpEIqpecz1aVkM0X1inMRxEBbNu6dQHe4iI4nDUxmeLyaTRHfe871V0upTAxDiE57krYDTd5l6y2ZhFiPBU9LHIQgtSx7bLbDCvML8Hw7GXQXaeC4QdFd+8fi3PwtTLTc7yXcxAyjmzMzqvKp++g5vcFDGGJtOnszYkKmrmFY1LPJnMtbLBNiTtDOcvYxP1lbJ7RaovmkPM9TzGRXlXR9JmbLiNyOUgpCEYLd4YfsVkyxoOH45FR2Sz8TCjQN91fRH+dZMKn8X1fobigBLjgHlVtwLIcGv9soNthi0h0KTPJLFQI1lr0gBOpcO1tX6/hMVj0JJPxMPNkuBnu+1RopvsY+P3wISxgYRrHjX5NEyoN2/eSpXfjMQ6/3bV5zE4l6gEKaK3kbUo28JLCDSUj0NBg8/V1OIdAsXX5AmbFOKXvXci8kVysoFUJoNhTrlpo/vueNb4Z9q9Ecl41q+jpbHjH4XI1aTyzOhhtpZ9hjRx8sPQG/hxcAC8c4+fXACM97Asa7R3N0q66zeMqHbAzH4XHmmVkLDu4nyPHxUXBPwvwHG/zQU44jO5AOcCHMGJPwlw/vjbv8F3HLSTHbkFyZK16eWts5dnFrt1m/U3z9YzdtrfOwoTU2ifFaBVnGw2yf8wakwmFRynznAe4DS2/X/vZbmD3o+ZChEbmakGNfaVwWA0JTnLnJHiFKR1WC3dHUU3fjh5Z8ds1Ky0hqPngh5Piw7tepgnYqp4stz4158jeYBlxIrscd3NJTEPLHEN7fZzOF07hqP6senLSAKkuo93McOJryCA7VidwUpjzde47ntRc2QNLCgjT/n+ENcQdCbX0Xol7Ans+yVL0p05bOl+VDuTAHMXQ7Aez9ni3f/ANtN8GwzK8phkvZedI6KWG6fn1id1hT0JcvEE79lMGTLljxsY0NJ1pHD8Wxoe9YnVryz6IGaYA04+MQ2LTf26bNltMtBUxqmpdQYwW4H4Dwky87vUX6Av4K8L8LaYSPDyXdz4o3Gwyd2kQuQhMpBp+4E52a9mhlJtTtooA6c6brRxuLydfaxQmULs9ibRbqbA/jcGVC7kzAryxly89wo7WPVtjdzXDrBmJECiPzzkrKDnJhWDTJqJEpFr7kEIO9rG7/XJkULebF6hfRw5SlM5TWCIkf1evPeQ1wUTFdZ/4dDvbmk7MKK+2hYZsubMzHKkWTDQ8YLNWCeFunP9PdLJoXvTiwULdoAQXbvz+KzmKONDN5XsqANPmmJSXYBjn4mhfXgvwNGMbD8uwIE8LsApk8qEOj8IOBv82rEb9pZjv8AN4yp1miybDiW7a0LDipW2UgO+Mv8aTfCTcUMynJxB4Tx2kwqOQGc4cB57pAezu5tUcKK6SSW7ysV3kuqexpnGLutoT5tdktHK3dmyLcOJ4leJqAx72RUG7LMibQGBJ2PXw9HO3LM521RWFdusrtN7TWD0OnBkiplVNZ3qt6viS52InNCyCJaZnycBSF8A6siM08/BdnIXgPzsjMzIaoWKOeVRMjCdNuI3Ekl9FT50KJY8YI2VBQzkszbGdrACHywHB84Lw4mdEXNVeIl0QpsW5aYuloGjN3CvyxV/cLK7unwvXpUedpH0b6dNdawuyg7m/Yd96net1enY6G9YNixdb9sl5qXibwZmdWpEwXUAzu/TsjqzUiIiplFqUnn26ENs5fDb2HjclQih1A/DlMKBbRBcWXgbS1Gosj3FGplCfbdklnwrDDHZKmotgz06sIhNny5lLJpXZbVKvbuSmbicDCffBPeOnTqY/Sqx2BSgYW3VLz54BC2TAPWrBitI6iRk7RPw8fPcJ8eroKaTtkN9aq4PZKrIGLR7ZNP1jEz52yWi6QmSJRpG/iQkj9qXHRBF803XxeSKSBlAz7Yska8z2He3sLeQneN33hZ1t4tf2admZz6FEtDo6gaghL/14H6tH+UbUUn23VqRNYx/jBsX4FyAExpyAY5+quUCnJxU/jzA+UlCs9KmdUaaGcbOsshZvy/jKB/F67Fdw1Xop5bPG4/DyRf5FCMPx51/r357NRK7dJNszFK8GtnPeX9ZzEyxExtFqWAXMtvgPKaQIZk94jP2iM7kJm7ZDpWudHeWYc+XZpDZG338i7EEOGFpVnSGo+aV/SDt0IPXVfnfOgFTRK7IqcvxiMK0TC2I1FDPk2yl6SEGYGeGlIQ2ZnD+gqEr45Q/C+3LKSQyFhuf0ZIRMGb/Iic2m7c6imh86wnoCu+3zBHNsvuAyZvW6c1rvkgArB7tZe+cpa+JvXB0NUxo2UKD+r5hShsjJHUgTKpN1W65HLolJz0F3paz1/BGcP2gKWUTVS+aF979qpscsfKPxuGbQ74VAraq8ExSRB18bxUkcvk3ueHL8d3xADYZeciwOA8wGRBRDfZxjHOSR02YcxNpHVydbPPZI65t9bB3HneFmyJZe8JHE7UrY23htn7NvLLWYb1J2hbN2kxw1CYGH9/SfRmwUUztGR9ADIo8GfC6KvFF+QJPWa9m22zIZvCWwEjOePn+t5tv8jFFr3Rvts7Z6sW8aWdxkg2LiaJe3DdR3hzNo/t5UgkzVECo1WjqJ31TmlS3IMshXrqP6gKcC3AuwAEDugAn+Uew3F/CcNx5pNP4Cks0bfEMVu+sf+1m23JXN7mpPZFHS6Fz1g/H5XjIZyGs/n1uG3nj8yqe2AXqjE2ecMjmU/4NJGE4mhrPex3L3r4n7KHMnFzxmem4k1REnA1kVktWTAihmFYbByyRrTgt8ifTSaAkXkofmGlmUC2s303AbKFFVzi/a9YB5rdxjjZRoCKfSbblNcBE3C7PEb3Vqszsqdc3Wp81nsjP+EpvRptizZ4sxbDcInGQG1sddY/2lo7stZ9ZmZxH3lNzP/V1iVBOZnCXTydSCr0ltlV6C3LPHs52zF3q/aDl/BqGcwHOBTgX4KiP6gKcCXEWwPnXzvWzspSjKzwbNw68OivOBW3sTL/tgOpUx+g8t8lUnDN2qaPNZuTvYX8EckFi/9/BdrB5FQ6ERvPLhiN7lL4imR+fH6nx/tVEWZBns8A4SRudZEBO0tXRS7OuPbJzyqmM/WU0ZbO4iSXtZvRKspglZENql3QdVCltfz/xld4NsyyP6NnxxIwbRlvez04yl424hIj1dn5IsCMPbU/+kvDzsD5xmcKcuM+5X7N2YXaQMs4h52weM8eDQYJ3c3nQE6q/6wzrP85TlWZHO/db03Gbqjg70y1GDw8msnlj06/yI3dc60DucgDsyaafm5qdKCqDjEQfctDY0A+zb3bKsuLkyuD8iD1yRfweyTuJaAOty8E1zlUgwGGaWjNkNiOOQbJIoh96pSO7Xt2ZDaTpXU1QFEd3OgDR349Vadf1R3kcbTRvUhTKIGlqMGU8hQxGXR2ABRwc0TnCl9JA3cNhetDS1CECfR7B1I9VZLPs3OzijudvpFL5J7Lf4fk6uLQOpbqTOV1w82j2W9TByr4Ax2YbmZ3y/AKcOrlcgHMBzgxQu50o475mBrRP/RqsHTKdzY9TZnFlOP0zW5JDs0w+ucfnvsHZyhr67FlBh9iy+76hjywsJCdfmW+sSHXgEZXZiYqrUKpDbdyShNqucz7h9UlToVbLZtAyEfNUP7NVfRp9V7NNjUHeoDvHE+KOizcF062sS2wW7JeRZH076x9ldCvwF9mZWNdacz/ZU5MK7zQ6dSgZVx2zVDYpgJbX9EMz4I+6ievVyw8FrhZGDUxEVVwBQ28kmyE+hHc775rqvPM8QASk1PH6I9r9g5Vgn0TUaiLYjXnD1L8obFDsTKnHpQRRzpmpYlgUf+5ZDNR2gcWBCjTIrOz5bJA3cjwY7aRCbX7L/Kj3oIBPhiq2BtVZry7KbS+Yn/P3shtmFVHVL/krCtrrXpQtgKN9wjsLrOLbAfnan/Nb9/Jo4GvxQ9o9060JVuvERCojaMCPlr6PXLUKbG19yfdIaVGHs4O41C/ASRl1iwAvwFkzHS7AIRQ7Q9N5wi8coZmVpkslTUBnG73jfzLgCFE6EdzKVQ5m5mAz5/f8yB09MpcprHjkuWe8ebXPphyRmLSY4VTBpJzONa1SVFaSnhoXWeDhXrcoD+ZAetSWuKsIgZ4lpthGa6ghsx5MLdGxMFH56U96MTE1uqk6ilc5H0p+Yn9nXHAeu1J20YNexp6hXpasFDa875su92XH8liHi1y3ztxUmobriU4xm+Na5kSSuTfy+ymZ2zB/riNcEyjqjOFE5xIiHXU4N/IoicsbugxK/6FI63xwR3nS6Vl60GO+IZQS6eSdYhDgFDzbgU8FvV7VqKcn7OkGbRfhm8sV+bYgguvHU0TX7Jr0lr4Mbd2p1rVAqADftHA7Q+8H6u6XOplUiFlMrlsmVgbrzf3p55nkVMB5ldkyJk4cmrP8WhnswGdnkveFBBJJMsep2b4L9Wfh8+sB0hfgXIDD8Fxms7oQ9gIcHqcX4Pws4EQeTg/lNUcila69WyZxm2Gmc8I9iuj8+GwWBAivKWPAZnSitbo6WZ9wCoxrWcekjpr2nsdZIpjcuZgaB+0pJsM8C+xMC66Pnd/wTm1zykOfzAel/cm8Dyo9l3F7fxUToQX1fVlx+9Fz7W9rbOWW3J9SEzaLILWk+MVB3kVIl7HSYfSOYS2Mb6MwNL4Oe6NjlcsD/Ttk0cRpKJkHyz5wNIP0fwE4QgU2lOKuTQAAAABJRU5ErkJggg==;imageBorder=default;rounded=0;" parent="1" vertex="1">
          <mxGeometry x="430" y="470" width="140" height="40" as="geometry" />
        </mxCell>
        <mxCell id="pbFzUUPsV5RpCnLdQWag-9" style="edgeStyle=orthogonalEdgeStyle;rounded=0;orthogonalLoop=1;jettySize=auto;html=1;exitX=0;exitY=0.5;exitDx=0;exitDy=0;entryX=1;entryY=0.5;entryDx=0;entryDy=0;fontSize=18;fillColor=#dae8fc;strokeColor=#6c8ebf;" parent="1" source="pbFzUUPsV5RpCnLdQWag-6" target="pbFzUUPsV5RpCnLdQWag-7" edge="1">
          <mxGeometry relative="1" as="geometry" />
        </mxCell>
        <mxCell id="pbFzUUPsV5RpCnLdQWag-11" style="edgeStyle=orthogonalEdgeStyle;rounded=0;orthogonalLoop=1;jettySize=auto;html=1;exitX=0;exitY=0.5;exitDx=0;exitDy=0;entryX=1;entryY=0.5;entryDx=0;entryDy=0;fontSize=18;fillColor=#dae8fc;strokeColor=#6c8ebf;" parent="1" source="pbFzUUPsV5RpCnLdQWag-6" target="pbFzUUPsV5RpCnLdQWag-10" edge="1">
          <mxGeometry relative="1" as="geometry" />
        </mxCell>
        <mxCell id="pbFzUUPsV5RpCnLdQWag-6" value="" style="shape=image;verticalLabelPosition=bottom;labelBackgroundColor=default;verticalAlign=top;imageAspect=0;image=data:image/png,iVBORw0KGgoAAAANSUhEUgAAASEAAABgCAYAAABSbsRmAAAgAElEQVR4Xu19i5YdyXEcBsAMMABW/0dSso59fGRSIinRouy/Nrm7eA8ersjMqIysrrrdM4slZbP7nF3cube7nlmRkY+qvvrlb3779erRo0df238Xr6/1jt3798rb/I5W1Osn1fjtG/gNetSKkG7WHre/4otxJL7GD9ql2r2rLDaL2c5qfyiftk+T7+/b2U1fooD1NEgbJjddbcXhvk2y+78OcstCbMRm490q3qvam+t3fUH50f5VX3tfrMosvdbjT3tx2wK/1Xg8aBB/xocwHle/+uffuRwuJmtav4x2DN1PbOZcILxJW2H9SRPyjcDpvsXst3m9KOrguuhaeVKoCrTOJb+PSZaiUujzS+1Ve3Kvk3urdZAKFbGKeylFvUgBA/vunnWxaozFEoh0/PYnaCnjs2Gqy4l3tAVXgC//6PMk7TUwksKvfkIbs/EPHEiHyAvrfKWG/JEOrJMSThB6IHzurc+x2H35OUEIY3qCUILm3xAI/b7C7bh6RGWVhbf44/jiLHbDXBmr3h6YWgrrqCZ3WnAczOfwNHl++9WsEmEwe8AnLKCWJJr06nFnQkaKosyrxyODCZbxZRTub8Nha1cuaVnUvzvNg+af6O+DilwZIJnQyIjILFYMYxTxmTZXs07pmtZVmGknPzmXZqRJv1bt3ROb478fHMRNgUdW95bdGRO6YGld/f2//L79noVvm7el7UV87Y9C+neJmz8xgNCOgI6mWbXns9Wz4b1EBY9P3OU75/R7xj2rz+ECXPnDgy2iC4efHzcJfvzkid3+uIHQ1wY4PvFf+sLH5y9fvsT3Weu9zHAC3b0GzWdE54A+LhazlR57gP8rtY3zOwUG9esAk2Ny1H9jQxsrfwShnEsZp9IcgIYutvycOnsxxixczU18XoCQyscaOi6Dyk/VuzkBB0CIYyqzNsqYDIHN8wlC91pQ65tPEFqNzQlCZRGeINQVo+FVBSGiHDT1jP207w4AoYrifRA4NYipqHtAwz0bdY+S73PrTANOn19EX8ZeqHbu3KlozMZ+YHq16/rp00dPnjoTwnNkQp+/fE7209jRl8/OhL40VkRJeMjoqSlcTawoDYI1zKH/veLZRW3aH06EtHX3aGmr5nHUhWr55BcxSS8zocL1e+M4D+hLMqHsU9X4uoa2n61+ofNZdjI3d6rn2OSQ7q+PyhAfwKHmJoVOVBHvS07zlWlKebj6VTPH6mTXyb/H1G/XXIzgqoy5mXjBVp7GQu/XQh2sh5gie8C0V+bFyZLCu6kwficmBMDHQOjm+tH19bV9fvz48aO7j3f2+fPnz+2/T/H5i/3ta3seMVpYQId0gkSqrQ5dYNauAUDZrdV4qVN2dNBqTLwaTL5yMERpqnpr2G8zyWIM9s2xHHw8peavmmMplpNxNd2d4My261hre2W6Y57ym/uAkPVRCtuHLa25D9nwZVUjSVs2t8UXCb4FFHvDnAqdILQavwd+f4KQD9wJQrkOTxAaQvQjCM0c02UhTbyGx7iHqYB+5cfUSoqkM4erPyzUuBcykrdjLWJjqFGOpEZtSp5WpZzZl6A3fXtzofLy++bOiYMPKp7TcdUYz7PGgHA9e/7s0e3trS/+ds/Hjx/t8/v3Hx59/uRM6FP793OYY+qwVqx9GBM6YGJFJZVJyOzqvLJBQ2Nm4G7fdZJRRxDMi+Oh890jT9Jxm5P4ezJj/c7qjGanuogWE1K6NGVCLh9ZxgjaLj4rc0xnbfws8yF285oJ3W/tXKq5yJLKdrEp0bF05GONdMe0NnIKQjJopdkYqEXLSpldEvLmGrr0u+HnKCZTF0qpZ1zcYycvjdTQ2FXbVYiODvzR+2YuL/NdaGPkpiJAsrhuAoQAQC9fvuiLroPQu/ePPt45IH26g2kW5pglwSW47+cIH8gVtEaqf6SOBmqrisZ/97qjLSMKrsz5/r0s0kEOS13SlCq7CgIil9r02Tws5sabL0pT/vaP6wWfeCGzfWBtLUETJulRgfyG92UXc72i39P+xficILSYgBOE6sDsCvQJQgsmlDBxgpBpokE7CRPiL6aXZoidCstuHdnQ5jupapkMFoWYY04Tf3ZyDTbtK1pdKy698nb/POyzV6ra0L/cLt97Bf+Gxd171Aq5vnbHNBjRixcvvbbGJD/duQn24cN7M8NwgQlpnpDy1z0mNEx9HcRJZ+p8T+BrnG92ajM53dYqJk0qCPQiWdRS20b526BEmGwyTd4d/34jZzMTWcRt9vGSyaj3i+WUX6e1uSma91dxzrG+l4zt9GHv5+WS6tOXdxTryAa5jfYYHVuC0IWWqONtaZrtjMqlqFHKqJS+E3kTuTL03XMY7w300d+3kRx/siz0HVoxjqGIVl90GK+nEZZHZOz65sbqefLkcfMDudl110wxhuVhihGEGCFin1YgVKYs8UBMjhrJrAmkx0ZsO+9qmkUZxSypK3Mme7sgODRN++kYtAUhMycl7L/Xu3VYevvkJXGYg8xcQh4EPHtKeZcCH8jcuaD58dMJQnvSdM/fTxC6ny/iBKHL4/W3AUKxiz61Yk2Wmq7BFToOqMo/ZyzHnFXq4FvB+IzxmDLcg3A1P7PBW4q9xwfUIT5HpNDd/qM06wi7m5W43zNTy4+etAgZLjAhbtt42rZv0AGNf7/GVg1jQpIjo/OdbRjpvHIw7Z62MA2De5m6S9NmwoQwrFK41LhQETW4sTfGKK/Ex6IC7U/psUTTfMqVJtbaDvmBxDm/1nkiw6OgzVzQZvIuromAOdOT6wADOqqfV4rZxg5M6JcNhK6sUdmyQiUnNSllHW28ddurcFUxzhHzfO3FKPW27EPQ0g9lkaGjwzcI1IHHvtXcTTNeh7XfM6YBQgFI+LebXQ2AEoSwj4wFrAZgSBRdjfd0euqXIyDVcbm0QlhpztO2unn7NzKFhbWYkNm9l6Z3C7tzr0xvfX9gLWzFD7pwL2T7VZHmenXwmHTy4BBP+/ythLgUvlIuJwgdgJW85Qh2fav5O0HoBCFI3t8MCMVxbkHy5in9xiy4CmWljUyoMLr4sbCbBXPNbQrChIZVXyM6rOkI5GurtrtU7oVEP+PNqltn0auaR+Q5VbgQJXv82PeOmROeu+Xbv9gvhetL20emORzZjRX7SW37EPJ4yUTZhmmT/ayB/ogK8HLuy3Iqa86RHxnGlg1thWE+xnOhubR2RLpjXqVjFmiZlLlYl4dE1inV7lXZW87b5kGloNJYfFTZdnPsNzhZMbVOI+3V/p6Gy3fbyvUQN6rFPZ9KtnlMXlsbDr3o3hiM4b6o5h338mEc6/K97tL2jvM/68cGhGLQrm8aCMVRHhgAAg/ACNnRuDxbemJUrBQKbtUK+30HJNVqWmgbyLoIqN21G+mso5EtSAV0Ofp5uc32a9xSx3gveWECQn1d7kviWlj24W62B/KhPsj7CO2D6yhAJGsQQ3+C0H2m4Nvee4JQwOIJQoNg/Y2CkNKsvr/mAVRhmg8zUDAfcbnziHIdFcuRZ6aYIQUlAfy26LJTWpIKmLhzjTn9VtvbHu3RMTChMMfwHHODwITUSb3kiSQt1hZv3ejQ3dOASyaiNqaY5zpEHIIaRVkwCbW+B8pfnijrOPoklWZP2Vl/oJC/ByTe9Gon81rqHNqic1OY3q4sDQvhwetifwnYin1o+V3RiBCbi6dFycmEqgOME7IQhMXiRfumjjQx91iiU+BJj1YztT9GEKHFXReMnbXVcKjGh9w0o9IOy/NLe0XZ9mRFDdH7Z/zOED3ACGcK2ffmG1po2CkTGZZCBxBtqdBq+5izO07tER1iGzY5BCsFuAKhUcakQt1H1otv92sPNfO69mM+K0WON4CiQy1jdFFYFnNzUKJ522wj7ENkdOYAPgJC84ifuHhkfbuvWMyxE4QeNlUPeeoEoTngniCUULInVyuF9f8oCP12Qh+SHqy4hQ4SqbgD2Zb6qo4sw1zotJRYtK5/f7kde628wIRUi+0Vc0EytIZLxdTRqZp/rrGz88FPvRVt7LiLHoeb4WgPXnexd+wLDjWTSFnR8LO+SAS01LWdms3TAxGa5K4oI6gsZCZLPucTmnqYCSkro4m5lgPeXc3KYVtKNNTbNZdz9iUZXendBTmeMaH23VKY5mazwvtejtTasppHCEty8Yq3l4UQUmQMV+ay3xN9wMsPR4maZafuA8F6hU47u+LrcjM+HsOFY3ddwJDyUyntQNGCvbuIORnsXvcMhMq4i0w+bnvEeJ7QUwEhzF05WXEKQuKRG8ZbhbjvMRMKbfi3O5CzOxSEsgDcOTOL3Lrq0DAcc0IcLnnOPao7HhGTe77q/SVBlwAzhCDnFkKN8O0OR++h9Ghlbh7wERb4U1AuDVEArS1MeN5vuc93soLEj30p6FFPASELySsIuU/oBKENCFfltTtTJwiNQ3SCUB0RjscJQksQWm6VWPGQDXOcCF3RZKLtBip2aYXXxZ11bCMxB+jKLpTMtcVu+2Y3TJqzbKH80DXEZm/StpKnLUGR5tjTJ5knhB30PMjMz5iO1/wgZyjm85IhUdj0pG+b30WtFikYOlz/nOaD2znUQhqSB0GTdo+8ypLUKPJWmRCPvHf2knBQOGZnWiVJ1CZkOyK+kFZMYBhdHNIn45hmWpooeoLi0dMepuxkYEJL2U1ic2hVTM2wJQPzIq2fEhGb98tPt7DomEfK9hby/PdVOpeGWwc2H1x61X8h5xuKEc9oFEWiIgfshCPLanPPBnMPTR1nQiZl57kZ1cV3pf7IkgYA3Vz78R0wx5isiFMVaY59wqbVOE0Rofruu8ND9ww/zxdSdkj9gdNuDnM2kyY/DF+Bxe/C/5dnXKVIpDkmDQAE9UTYRZ9HWeXjI9BUv8YKyuv3MJunG7h1kbaxsTegtGt8I4iMcJGEmQO6wuIKJDH3O0swbyly4svxkgqrM58RRzHFR+V0gpCNqozcHGhPEFqM0obFXRD8E4TKCi1M4QQhMiGiI7gm1cvoGN4u0hUurrSLzkRq/hEMKv7bXyVyc4m1PRgypgp8/eUec8wxNKV3oPR1eDVGuf2DQ8tw3Ty7ae8b84PucZQHo2MfPnzoB91/aqZZP1damJCP9mV1aCYH23wJp3sxyoln+/+yQJQ9mmc+xZUFdzGUm5MbUWbiG5Q5YfNuguX46TSIfu4NKqy9mGPDnsolI9gyoTzhAL/JuEd7EQDIPX651UbNtAPiMzEERqviSCnRQp0LkYPlRhbBjLEWMzxlbnSaijk2A4ctkHDaFnbuso+TJVhnuzw5g5Gyp+zYWP4F7qpLoizuTe25WNYNk8WSQ91vx4bVp/F+sWftJEWYYbjwHRcwQAj/4cIxrz1xcZOs6MXWnKVVy9SXkrNjS4qLcUi3SNNF6ZKXr/O7BY4tYIz8qjwvod/+/cDQZiA0bqKcyb+/3cRrlyCzZ/ke9Alhzvhiyidtf980DaO1N82x3HTsb0UJuZEXN27yqXZNpHWkTPAlh2AEIFE0ZZzKxKxnybtA+YfpmaUAfLtPaDYJJwjt4dgJQicIjTIyMKEThMI/vQtCGDi/qTDvXWf1hUWaRU5vOmKezBjRHiz85/8d1HTNOJydCF2QCYFWfdbMMFw3N8+aaZZvYGWJ79+/t/eN4cIh9zDJTA/Zq59nyu6CHydu99TCeFgYLL7V93v10lXzLSdEALxHvvbbMha3DKgIk5wzIRsUH5tSaJW6qVP5IhNiYd4XjA+ZEE695OfHV9VhzX6AEalpVhzWkfOlzmsnCtmP+QiuzTL5pSz+/n37MDPB7PcJGyz4ISOb+1HTbEazYYoGE1oghq4WXRmXEKS2YimC+oPI9UYosgliBtwzsnOoEX/Bm7RPg8hbK9T0xPrnkCIC9vz5HIR4ZMe79q6x9+0/XHcFhFBTrsweMboYUszJLMDZ6XnKIcEoJ3CytOW5aTa0d96LOKKlyn2rB2QJyVgq+GxOEo3KHYCC2Yhc2/27JpD3A7XPQAiApK/uJvD4MbwZKeMGZOwB7C8tkBMzsYjLhvOpopGBnWOHy5zMjy6HGRAXvidjw48F3oGTYo5xbh2Evpwg9BfEnl7VCUKLLRknCJkP7wQhUUOFoUzyN8YF7BQtNJmqGrmxI6XePBYkaM6PvoXA/zJ3IQuSqNmxGNRfA3ZqnSU6oOwkbtswoegsXvHzvL3yGdd1yxG6idf8PG1Rss9f/P1ib9++e/TuLZnQnZhjcKayHZI7o0xICHGl25Xkz/YBIWbXNeaUlIA95Dj0WzZsezI/pkn92hLt0LkHmFPthbZln9pX8a90o5QbP2l7GR3D/ME5jQv/MtkU88h7cPwK8rtwWbKpvKiApvX4+iaepGlrJAe2j1Y1HLK1o0GxToAU3lNYz4I6cWjV3O2fm/SEZxpNFcd0K0weyKQ2oZ0HFntZPKPIrCRgLnMbaUW+b83aU6H0wtWRPhb7n8mCK3IiDRXxsN5wCLm4IbTPnyUI4R30LtBPG9jc2efXb94+evfunX3+eHeXZwvJYrewdZefS5ETFb5sXafTw5xEHmWh9pPpja8KYZ/elouimlTKJPspkgv7TXB13RQs16I8E2QSt7P/+t62Zch6Mq8AHiQv4lL/EDYg80WWOBeK8w1TjNFN+Pfuwr/36fOnYpqVl1pyHVsXJkpbYHwJQnh0ii91HmamKrs9RsT6cLQfGB3z0H0rxTOmTxC6KKHf+McThHKBXOYgXAknCP3/DUK/bhtYBRLN6AnHGEQlHY6iUwbJmdE9tbamWUVap2gxAfCy9N0Yk4q1Dd3GO4gWOyzyYCkPvm0NQhO62L7iUD1vkbFnz59bvc8aI3oen5GoyNygH3983aNjd40d9VMWc91beT20Lixg2yFhQv1HYURSJuaGv2j5pczJPNVdZKmCbQsHX2Nkn3vpxRFLc8W3pbhDV6/NiA7mkt1b6NIcFlWGjZVPrj1WhDFnsimCDPwMVnQT+V/I/QIzsma1/tN0wVx++PDRvoe5RpNtPK5l9m65HFU2OhdAHR9lvtnB2T2lzAIAW/N4jGB2R3orxJMVTxCaCtTP+eUJQjm6Jwi5afY3DUK/aCA0huDonTe066HIS0xoq8FNG87CvxNlbwq12LIupC6g+kD6EWrofqax7wcjl31G9yx/1kfRwCtGp+xEdS1f7QOnNH1Ct7cvOitCT9++fWsd/qExIWxidY35qWtS11xbClhJgNaqfhHtUO1cAmr2CmNZQvacxXi0+k/1ucfdQYvzs+k/Qf+RV0N5ZJ3FZwInbvObuNzk/73feWkGNL9V9j1q7VkqQxmlo7kEsZb6Fo7mG6KT2sL1wX6QB8bQvW1Mjn7fNf/eu5YDhguH1iH9wue4RdN6/lCeKV77UZlbdUDP2M/o+9Hx88+XLJZh+PuM9PHua8HTC64IQgpESelaDH8FQl2ec4qLeNofk9+iPKXb6NIsQUtkx8q6lGrPexcYV4ua/bUCTRXgReHj15f8HJdkdkp725ek7TDHaIK9fPmqmWRumsEk+fHHH+3zj69fW5KifW+OzHBOtnHXhZx4dNVfDw1hnh2Mr0dg+HCE4LZ/ZpG+Er2cjHVZ9O13giycslykBkJhjj0BCMkbZmmm4ZgSnqHtPpPotyxMXxAxBlUke8vG9vQFbF5T9hgO/FywMyAaVeam65gD6QfABxfACJEzXGBEz1oiKi6AEF9mgDn+EEmoMM3opNYImr3YoCvz/Iz+s73oQWa5V8U0U1KlD4Nga34S1+9kuuOrfFgDGycI6YidIGQAdIJQsnIP3ZwgVNE6F803BiHJ8RDGsUqJV+PkCPPwkLDf2SkoqGZoBdRDjQbtTaebOxqzhgLEmoOwgN8jbSs41B+YcpLK661lXUJ7K2sbB2d6KuWtklx8g2HDAWa4bo0J3drn7777O9u6gQuHmH3/ww/2+U0zy0DdccEpTXMCGvVJvBYI404Ni3nhPEPbfiTNb/8yPIyyilkyG9hBS14yb23qOHTN3Eh20Jy14YDGdzNWZOwgGATqoKx8/Nhyopr5iQvmCj9bHyb5Kk7UvRHOhERTx1zAKUwOoWxQ5dkZul/2ssn4PEtscoe9m5U2BxGux7yQFWm4HudFdSd1e+5z9M9TL7a5RKZEwjmPOdX0heICIKMTa2XL5tN/sMpu71tN2jhpmsA4BDbCIh/qSrExwfGuLhO5oAr4TGwLncDLCz1pO07/w9UPZ7dXF/uEgEJSmHAgFw9q98jHVjhiyn3ix/Yp7+RoyL+HgAmgOXt2+HJqW+Mkvb4Cc4EzygEhqf6sSUUyHxijm/ZeMVzwB7148cI+v3r1d9138L7tmicIwTdEswSLgmADIaegWwQmojHcUoAyAV5vw+8Av9JHOTCfXV/vHq/92MMpvifNwCYWI8xFmmaop4KQmyu4tyf8CVBBidEXZiAkYKrJf91jtHJqSDeqmZaCpvu+9LMeWVF8nB1wYRJzTWRfFYRglhF4njdzm+Y3FBHHHmDE/tnrvXtCYzJZrJ08QUHMtEHcFGAqs4mtI7LncBvlipU47HfzdSmwN2jmvkTNRXCC0AIBThA6Qag6X5VJnCBE8PmGIDTqsOXmQmUUC9OFt6jJBs3FN0M851aDpompjR9dfX30/oObEG9bti+oNS4gPrMrVbOOYd3lTuo5xOx+axCUxLDcP93MZ4juD9iZMcHw3NTxx9PXIuc+24/KU7Mq1gPWQvaIyMnLF6/splfNMc163n14/+j777+37wEe1IA42pQOTzBRHISGC5qW7MPqibZDuzLKBnbFeQBDYj886vnTLrSbpqFlEct46fjyM9hRN2PAUsVk65GkVg5NEWfTLkOWU1NYkZtsnlfEfqiq1g7miQcqY8bSxKyaOfzVLqs5WTTHkuk9beZYuimePLplLlj79zrWyxO8USUGHv1kJBB969s25OA6jxw6mwErAmPKz3qU7PZYWRubWHj2mZ0pVlUdm24GypYMjq5iAb7rJm773M2xKlJ4xCflYvSxL1IRSbH1IapPYtQgKIjs4GKIGcl2N7EFAb6fd+H5/xHbDsIkwABz8W58DDOf0FGKvbOGCg+S7tXFl3ehbX1/UKPN6bNIEOp+F0R0xJ6fASjqIUgAMAjgiJogKobr9sXLvujgB3rdomK26BARi7FBm2iCvXhx231LJTvPbeu+MD80QMOF/WdMjvvQfE6cB4hGzxu8NI6jmWxY5wsQ46N7qDJaM4wwfTYiiApSMDWv21YWXJAxmp74m+21M7fDrLSokoBTP3VyIeiq7Ny/4p1SEEKfZr4r1dGUFDxHU0t9W2YqR4ge/eh9an3j9wBeysqn1gfODfpHkNXomAcZVsDD9Y0tFPFZAMxMqQ4mE3+MYUOCkMHKuB7lsbJ2Bch83bTR2b7y5wShE4ROEALYnCC0DaxQ73xTEPpV2zsWWBjlJwjZRMyAsN7SNalrCS8GC5laGLkP3P1NJvSyaXIyoS9fP9vGS1zf//A6k7KMCTmai8IuFszScS2s6ABBsgpSDy8Mjg0rCqIZiI52oq96TgxL1QhU3w2NCFQ4Fa2TMdimaSMCdI2d88Eib5/dPnr5ypnQTaPqdEC/fvOm5ZA4g+E2DXyGhu4bXoMx4HtPcItxtboiEbCNwF1jPbhwLlFnQm27gLKGnGOf6+n11ceG4mPHnEafYBoyMgTTTJmQxhVm0ReThW76NiYkR9zS9ER/aCJhTOmw/tj68fGT908jaJiPlUlPINI8GI2OeU5UmOLoC03LGBRnTfG7nCGEdisbpKMe48L58M/hkG/lKrtTJtRf8dT6gbVk427HwdK5nPTD+Jwu6qVFwVldMCGrpCLHWhYGE17WkeULdiY0qWvzla7NadvURIE/IqI6bQHA/ML1omX62r8vW8ZvfIdw6o+v39j3PzQQYoQGNJNhyW0HgxoP7Zg1y8dq+4tqum2C3QKIekMgfNkqCtrTpy2axdMP5bgNzjvMAZoEd3dyEL1FE6JPMGUDGMwci/IwdrcRHbtuphlBCLvmWaZ2E74klmMRSMmy1X1WXLzYjU9Bf9/KVBDq0RiJlmz9Q4NpDsAI280iQN3kqAuQImq+C+7/khCzHl2BEWcEzZP8XMYQ5eufJRIIIKbPRM/fhmnGPiHxjz4W3SGvUmMLV5QEgQdfdd8VFtTGb1Czj2kyAnR6OoKYp3bcRyQuYu55pjjmhnMGXx18drjguuC+QfOhilLbk+BNdvjKEbpAl4u+46LUZfkNjcKfJwjFAJ8g5EeCnCBUlRX/OkFoRgNidBbWUsEbpbhSlINQ2zs2J1xLclV+GJ8tTrigktDkzyOxjpocjtLrYELQQjTH3jRG9Dac1B9FW2VKGFB10eIDHRkJpCa0z5yJ2tmZlsPvairaGzFCO4OJaAo+7oVW73u7kJgZZ8T4gVTBhJo2JVWHOYY3a+DCNo1nt56sCJOPppxHsZJFhf/XissEvrvMG2nOcTIOMCUckOZlNlYRmvxjc1DzmNgP75EzFAmQ40sUCeIyCCZY3HLRTbA8ztQjfl4nGAFNPdRRclsY3ZHTBv2ZOJPHDgmLN44Yg+DnxiCCTaizGmzxYzAI338VETQcgyvBAmUTSxAK1jCy6dmqqVE4lzLbDydbOLRPTE6FKU1rAXNE5gLmw+ANoskfPjorUsZocyACrbKdbDnpykXWtPrxwHrr6yMGZoxs2+/YO7bZJ8qRROVSkda5sswUhOgTwiLKjZe+iG4bCNEnBFoM8MEFXwQjZR8kmoGG9DqLTYun5i1TXwMn2e6mLWse/nhN8kx6+gLL3uZkKs3OgfIkO7/LMl4jKZD/wrfQ93bJa5o1FAp/RvrT2oINkMB4XYdp9sTeORZ+l9Z91ol0B4bWPzbh5KH3MK36Bs/W7x59a8BzG8AGM5JjhjD327c+Jx8FhCwkLOPXTZHWlr4HDOZFZGerqdeB1SJADkJ4vpunSJCM9AwzxRndARhxzo5psQwAAB5mSURBVG18HYQA0AQemDA8GAwgR0Xgh4T5RCLLOBVAA56ImuFAuDuCkACSn9/sz9oioZLI1N6t5EVllJOyTsUtUL5XvxEAOjLk4V9kcioy5Tm+8G0RhN68e9tNM58bl2cHoYncDgkW+8mnaOlPRCEpYSQB1tYThE4QOkHoBKG1Dv4LgNAvf43o2IJXLZhQxcXhJmqC9i+SsIwRyLGkFHhjQmGigQorE+qe/6ahaAbAuZj1QiuFhhJWpEmGYBOaAKZ7pTjg/uZLJnTJkQimAXsFOT9wPMZf3k3/yxP++ENjJfGH5Xx0JuSaH5fmCTGhzNuRJpXuqqa59Pz2edPwwSAswuTjC+cvlR5MjDcRaXzbomZkQjA/upmBuWkOdM7Ni2BCz9u/zOX51KJkzD26s/fbx74siViC1XUnse5/klwpnH+Ny5mXDxL6Q4e57XEKFoJ5p5P1gyRdjomCfSsKIkxhdhn7CQYBZ67m43SW2OpGjg0uza8BQ6ST399Qwt34mag3BjdmHCMFZc4dnAjNuIBG/NJsBSPiSQlgRGR3YI54tRMumGNIVsUFRtfz6my0Qz7xuYc023fShimz75LIHqVcah/rr1sMmfGnKRPC8a6XMo5XZt+KoM1MIAgEzTHuhUF07CaOokBY+XWYYxhcAg/2LjH8CEFVcyxBIgcYdVNALXKi/gIJdSYFzT1rflpdCN/4epVOw202feHLxHrINqZEgMrMMSbThfmBJxmt0WRMfZeUJbXRlyIREvjTEoQy4a8t4w5siJTxWA8c/cBEPfSPY4byCUJIhHzx8qU1HgqCIWEAz4+xKRb0n74rfZcZQJyJi34wF/cHypk4AcIANwIc6u/ROYnaAXg6aJZTIVMKUUbZD6fRMYKQ+JwASAR0LEouUqQi0Az8LHvNIHvdj2aAqytA2tFXY42S9q+7GWfI41+nRWd/aMnqE+IBZ1Bg9ClCQRDQ0XaCEMyyd+/9THEAKAFdwaJZ6B0Vj+XAiYNjoCgdyySnxeR/QKfL/Kmiip0xfYIQj8w8QegEoROEBDaNNRWPa6BN2dr0LUDIKu01VZTiX2597Duocp+M7IK2vWOxbSP2xUDr4nRAdvhNMx1wISLT9yw1ZId2xKVHMnhjs2U0f8B+roP9gKarOdZ3jQ97laiRYcaoFma0xBL7Ikqj6G4WmJiejEhhcqjVEAFingdNT7S9bNuQPTrMUVHHtDtc3aR50bZsPCWjsgp9DCz3KCIk2PuF1/7g+thMqDzSojktQ1shp4nsAImQr76LrSBtPtzhjWfbzvw//9k/Nyb0JaJ4Zq6E+WTmWIwBzCsyIbBeBh164qbluXgDbBd4mEVIqiPbxVyr034WBC3Jf3YcRhwMhjyhYEKok58x7jr3bATaAOe7j1+yIjscrW/zyONMTFFPxN8YcXEUDLaDeQ6ECcUc+Fcpw8yngtXAUxPAiCg3z583FhxygPbyjSpgRO8Y8RP26LQrKisowgb4v3VJrw0oPjV1di9gYR8tvGFXv/rn31sIIBJcveGrp2UA52ZaPqwnJyJSwsgFjifABbOMZgC077tYOG+bP4M0GdS4R0s+N4HpURl1waQJdt0WEH0B5fUq5eiKPELEfCkxUxCyu8imxSJmMpj6CHBPsaFjBu04AgEktAMXIkA8mJ6mIULjFH4shFyY2FAZkyJmpYWzIyL28tV3rUxP+kRDSL3fNzpOAMU4vo8D0bG488iH5nOKxtvZQuFLAQh9F1nYt80sY9vhM/nzn/7ki1T8MzDLGLVSEHr8BCZkJKfaMbQ+zwRNmBI0bRAmp+8H7aP5DZ9GzyCXxTuSfU0OzOS/FlHs5iBAyOcAYMiFDBnkszDL0j/UzFYeiVtAKI+VsW0KIf8+jPMVwCXS/xUs0NSSgkECBuV9ZGZKuvKGKU5g/9zGiYrmffMHcSzNHGOyImSVwqptACROQEmXvJnLstYVqApoJbZuuu0iukYJf+AEIXfoniB0glBjfScIJY78VUBIIz2KUK5xBSPVsy+f1ZTjZz1+wVP2nTbT0YYkLGh201aNMTAi9rqdlUzNCMbwvmsop84EUI/t+IHqN8E8bJsCHZU4r5gn18kpjrZXqR8Fkft60N6eLdwoLvZj4UJb+kmF4qRUc8xYXwwTGA+1MJgQT0IkE4J5xH1e7kjkUQp5Kp85joNVQHszsQ/mGF94iAqpyd+2XBFGF3XM9FgPNSdsd70wIUbHXn7XmFbkJIHyf/8nN8ewQNlOc0yHA98d095xlEm2e4ukyjC7WR7YCFkOtoToCxpzZ7v75HyOR+aRAQHeojlZyAd6yq0uTQ4YEMBc0Oy3nevRb5RGsxj963MCx3TZdR8HyoNhULjxsEaYKkXKPlg/pEsU3uF7/RPMTh3TT2M+4L7gmIIBc/xw6oGydu4JRPvUdFK/r+54z+WdMnzJEBJyVfs5+2tmT5chCSb09//yr+1tG2KBWaviR1i7Wwwys4HlQ1Toy1ht8nMBYbje6SUiR6+a0OPCANPP8Lq9LYLHSQCY3rdEOVwQ/N6U1rx+TIictwNTgkIGE4/RmGJeCmCgb/0YhhBg1AUziXQX0YceRTHASJMpA2Ka4ZwghOgfTQEuVmS39gPLm7DTtDFTT/wrNCv9aAcfsxdt02+aY818DJ8GQvH0qWEfFDNot29g9bZrVjey2W/jTa4GcmFGAWx4RhHC9X5oPkLcGc4GaBPQ9bU19k40vik2zMdnLdmOwv/O/FbhA7SjNuj3q2fXdLmGO2biEDVvDMes/avHqdw8C3NMTGLMhW4aZXvQv54aYBFFZlKnOQaFUQM4PpZuVuV6mboy9iw3MZfQnwpC3g8oM6Ro4ALQMJvdzbHYlGs+IZ8ntKwmImYj1NRie823RZdCH3iWpF9sbbBl904QOkHoBCFn2WQQJwgNoCL+378qCP3Db8GEmhYh2CURMnqURCh/AMDpmx6VCREV9QhMy9/pR1Ok0/Zl5KfgX2pUOFap1T15LVC+aX22BayC1P+ZbI2AY5IhZrSc+6M8/T4yo+0z2UweHqaHv6Mi5I7gQjKYHoRVk8F80HQ3N+g/I0xgFWRATIaDU5ZnN1ty2eRtt2Bz3cTETvxgFc9b9IqsCAyUETGYYnTsf8CBVxEpQ5Qnt6XoG1JzPpAnxJP84PwEYzFt28boxzit0RzTEh3rzLAxoTw9IF/gh0goGdVNsKzbFt0hnYE59kPkIL1vbeVWCmOFk+CDj3KYYyaTnRb179EOzRGjOWbv8eJRKK1vur+MMoe+cSxh5vStHTihMRIXET1VpzkZsTKhbKXRigmNkFU/so1YOHhMt/p0cxbskkyoMXLugUOOUDr2G7OO9ta168xo70q2KcmN+qQxth1vtFTCe0uyaYkkeruuAELq01i2degDC7asY7ZL7XjrUdrxmYyVCW1IwML1qkVn6PewI0Yj49cSF3nUKwe33Y9M7H4sBMyxEHSAHQER9n6GkjMbuiSJQeCF5vejUO0oTf8B5dBf4BsEORBt8GSTJs+DQRRIX17H6FQ/08Z8THxxnez1EdPQjmKVPWdc0M8bSFAoAS4Io+MyEzY2/SJc2yNP4bsZVwPmm2CNsDrNsee3L5ug+5xgoTNj+kMTdD0iVc3TNCErCDGiR58YAI7j9anN6Z/+9H+sHvgz6NOwQ9sJQsX/Vr0UCUIZNxvfzkElBQCibKFv3VeEjPPwDwH42CfM9bvmY8MF2aPJq8fEehvTHOtKbW+Vy+++OrxfdWmlgkW7KUtQDjzSBYqQMmnH8Ir5SGVRS90HIJ/zuAr5yEY74PLv5T6L4YGy4rps6U0nCJ0gdILQCUIBDn8lEPovv/s3Y0L9GkGzsy/xngkgQikoK+oOa6ApHV0gHJHNx+0CcCJTW2IfGSMYQH9GfWBikEEYA4m2wLGqCWisB9qq78iGIzFyJsAaMiIw1wq+9cLH4el1Mi2MDaMocMpqzEZfW9MPbm/9IuvzYzucrfTEOOTFRD7S+F6vbrI2La17zpJNNE0e0RKwBppdMMdIz3EgHE8hwD2p3XL8YIbo/it9tTTYFi6Y09153OaBx17o63TcNPUa7EiQiEzCHCP7oCn58tXLfuwGnKc0x5BcSSbkO+fTbK4JLaKmuVZkzozdCTPtjn2JlME3xKMxfKd9nlrYjxNpzOLNGz+vG66AzoR0T5kd7JZMqETKciVNP2mATSNT/Wa4Gvg2VjChnuTbmFA4+WHCc9sG/k2ZT8f0zIk+a1BvQ13ey1TBXD177ErdN6t7/Z6rf/zXP3x90gRO92Jl5mJttjAxAZ6MXJrvRWgqF4BmuWoEqJscTVDoH7IIUAgzNndmeFwjU92DZWF1Rlf0UHMAj75NtIAQO2INTF9DD+nbu7BcQBH10Zc08n47GY/ZuvKGDTyjx4nmqXcetbAEQglxayQy/WYCQg3UCNBI7qQ5YSAUmxgB1qznjZ2I6MCn/qZi0MD064fOP+5MCJT/tplkBkJtDBDFssVYBD2ziKEYuh+hfdDjfPmGEKYrvMRewZ5oedWiO57VDQDtIWbbt5Uv9eunHNrKrd5Je7iAUL5MUFMQSvY0zrXqUTtsoo05hrxF8fB/5WZq8Q8hkhltw/yVkDeXySIa1H/Gh8k9ZprFQPpLEd1lgbmmMoIiIoCijA5CLTqmB/nrcS2s1//dAoGIv41vYsCwVUMLqpZxrcInhVPTf/No+hq0ThA6QegEoROE/rog9N/+8O9fnz7OYz39gOwAMfs3oa9/DWe0s2ZzBGvOUIFGyTsoeR6uxDJi1pyj1PBwUve3TsJBHPXbe5T6mybzXVJ6ZjO0QD+aww4Mc63q75gS+hyNVA0EE0XPLs7DxuFw5cmDbS9YsDQwJbIJlEwNZMlj4SRG27j7nFtCcFpkb4toB7RFDwKjOWNma1By5FWRYaBP1IbuTI2jHRAtCWc+dtfzWm59aP3mK4VubpAQ545pmCo9gQ+5PBEYGHf+9/LNHHJZgTlxw1MOubMdx7kwgbFtReDcwKFO5mZMtteTh/HrCQPKiez9ZcIgaB6bad1PX0RiZpy4iKMxIogBFk6WpqYZHLtI/sT1pr1GKd+9lpGnmjM0GCgTOZs6cwsx0D14aSb6kSQeTVZTEqOM/CBcyBe6C2YNdwHPZNfTIc3kkYWpVc++N/mc3KSbVlfRtllukpY340NX//3f/+Pr9ZN2VOgn2uLCGMsTGXlyP5D3aqRZu5ZidwQ3IOqHoOdeJoARN7ti8REMIIj1HJ4EGM067vfAv9Bf/oa3EHjLdNA149YF1391Op9HhdIuBx0umyFjYuHDIgjAN0NzS/dFAXw4XhnmlNFqHzPcreYYPsf+oRaiJSVXM1T3i+FsGdYPQUqbfzBpOA84GqNns7fzigi4rf8EVttw2k8ezEgj5l4Phu/ttyNjxdTBuAPkw/zBvjICBhZ9P3DeQDsih9ijRiUCn97kpXrqB8Kc9eRUyGXMDbCom9ayGRhgznnVc5/wZDdtGwhpYqn6G5lkOlo5G59JmeJcOBKY9ZbGfCAy2k+ItL1jLoeIkHI/HuaUvkYk1eYmZYwZX+4odZW07WHv2AycRtMpHYsw2kp75fHoBm9Wk25dp3X9BCHasCcIPbs5QegEIWMWFVt+bhD6pz/+7683T1pEqu++FfI2mGMlT6nQtVjIooGUJXmfRo6Uf2u0xt4Z1aMc+Vk31ZkGlj1X/Ky5QZbTI5pUNXY/ca41Ox2CSeER6WFSG+hwOSIiNBN61LU2DmgXDZ4JbmlezBK3dKZtBGNIoLkZIbHjSbgrX9/u2nQSNSBMBh55Asc3GWAZ841cJfiSbTrT81367rT1hzC+HEuYxPnaYTAhiWaFsPpRIfm2VZThewn9Bjhe+4mLPAMF9eD87X7us0bK0py2NlEZC3s1FhT1a8TWNG18b29+lZMYe0KjHLmCe9hXmGVMAoXzlwEHM7NDtmy7zUgHirRne/2car95G73yUuxtrHokyYQJYSzJyhBdJPvxY2fivWPiDNbzsXVs6n6yYY3OOqVR9DIPNsrDKFSWr3lVeSOeaeP3P/4DINQ2F/bBqQWWs1Kk3KwyhcvbOKFjIyW1SchOY5D4lJpIFv3IbMIsWwbYfEXyVgY12fT92BuabMKZvVM/goNQmhMZys1D09H+BD+NnAwnNFYH20Zce7+HSdQ3MTDqZO+kCoDG2PQNmLKfy19sGL6gnWiNNybfcYYQME0/BSEDfYbOzWcY4NQ+9wikpEGYv4+mbezJc3MpQMj6QEDKN2bgO5bnvievpyx0KI4YRT/WNsGUcwx5yAUmyg5+K2kPo2NIFaHfzd75HuXrCYb2xhE5fyjfkpJ+t83keuPFJZRjVwEg5R8KSN/PVs2xVBAEHqQRZBpLNZXV99hHQUxo9/9yLvUomYop1c8jvaR8ybovq3/kHQY52+sEIQq0ODNPEKpM6AQhpCmcILSBj28FQv/0x//19fqqvdOIGtYYI3mtMBvzc4VmEiqm9qMpJYmI5edUX0RVzR2wzx0jUQe1myQ8ChVUSgnNmRGxPGtZ3+PFVodiqmMZXTXOxc8W6XFzwvM24jXJ0ObxtDtleUg+InekwWMk7rI6KAyXgKg5MbhB2zjRJB6hDI2mTlz7jhS3Pij8oLMrc9CG6ed99opLnocVyboyWICxYJnW5GgzI2aaDOp5Y2GuISdL2F0GPMRkSZEYojy5U9yjm8wfy5wXzxfbUng/ATPYGBzW/d1uz3pkzV4RFDlXiHjmSYzpQP8sb6Sd6Xkn/MnoRgaUs+L3aP6ZHt5vr1KPEw7MVRBlWoLnLHKpCboyZxpMABPSFz2sNmLMZHQUw6kxdoiJwzH9P//4tRFAhC9C4Aa/FN8prjamFi5mlY23tC4bP5ps9b4CSNPnYznoaCS/7DhooVwmSw4DUJq8GhxZ7NUK7D8kCNlXc+EqE5SoNYGP+VeO5TKtOsMzTDPFIT+on4YYpGaBTBR+Li/h6yYTUhAChHIdef87rmV0zOv3HxyEpmIZHU5ghXnJs5OQolCUFIdHuybgX2UtzUqYWVpONyVFVhUMYKJlGD8TBPX0RTvChOcMYf9fLHx9X1xfQMO0zoCn+IREHi3tgOdgiWmGPvXUleZT0/5xAUARcu8YlEKasxldNIXFI4UFqAC4fVN6WcVllKf+r5kUV3mEUCzEv7XnBCEdmxOE8sxoHAp3glDfQnSCkKmXnweE/uvv/9AYK04bdCbkiWG+Mt0SIIQllCmRQN6AYmX/rShyPRwtWUVXdKKlzdSiRvVWRGOGHJ8JsJbog2nsbiDI3Yv2ok7R3gW49Y/4XJF+Qk/Y8s6EFppg8fWKAgsB7E8GH+t/y0yV7TgbAjs8Ydo1KrYcnG5aywDY/CRFGbJBUm4U0DEVGhmyqclSMr8IW2TiXWrF/B6c4fLW3DSh8Sogr1Sd4NYfGTRlB91Ma7d0J3XLHyIrslMZmCCL4z4kcpcnNOTZ3Vb5yLKVpZbPdeQ4ouYWoJko0Tw9px3BA52bZP9Zv5nHwXjAkDKaXE133drUzUabrU5308yW5bgrzSInq7Ome5//sR3lgaieHa9og6jFpxmlv1U8LCK/mQOXSvHt5GiPSyBFu/ueskHzZe7AVKh/jl0Zp97KFS2c311leFh+KtyrSTliT+9NaOn7pH8YrtlEe93bB+o6qQPSYVtBqH3WYyfUN1gVhrR0ACEVLreK5ujcVZ6E7rf+wxwxNfn7a6glEqe9Q7/7GVPqJ0KD4kYcEcvQvQFTdMnSP+JMJUv/6DI6D9HrQsjxqiClC10Xg6aNEBztdNKI2Po79RysVTV7k3IOOsC0aGF/OQHSLSTqqFHExGr10eZYj2vw0lIqinG1eANUrk4QmkFADm9RpCcIuedHFuAJQicIzVbQvUDoH/4ZTKgdJkX7v2koZRaF9XTtNbcOTUCra7qDdWq4uRbrtFqxvFD/xHjLG5lQmxGZZ/5nNzFViQjg6GiWwrZQXpPN9rjM8PseG5PqVkpkZEeDkamKdfq5tsgbZEyhm8JijtnbU1UjhohJsKL87tRs0NPrTte+FPHt7ZpFnrzErEhzyla1USYmMxqlSdRM8pl0L5azII7BKE/DXGtAYAyWFJMnW5S5T3nagSbxggX1V4ALY7ScJBJfceAjb4o5ZSa3ne5m20cW1fsn3VGT2gdrMsqzRVeUty5wk7r23rHf/P4rPOMEIUxkDdGXFdsnqn/bGjJbkBoh8baOUqliUH1GCRLtEwfVxbELZbGDZaDqsCTlv8gI4/kJrnmry2AfKSkKrF3srZwvkFrurBbMy+xZXbYbYRKhqMplWCwxunm7gtAQ3YybPCwvi4chfXy7EcYK9tq/qesO7ZEFxfKKn1IVyjBPxQzTrnZ5WkwOpD/mG5tjMwolCrYox4EJbcBX3UQJEt4kmTkBhlxb4saQtvhRxHkWUp9XAE/3A2XqiobllSOUsVSg0LlboPkUa6RPVbpESkrZWN8nCJWxOkFIF8wJQicIJXcYVdY3BaFf/Pp3di5Hd0wbQCf8sTJlBJayN0QvHNdTV0ugxbXJngkikZhOR4eez7SnJzrOrgXfkNG7xGlm1F4J3VijjNiiPVt1fGlIVkxh1i67tz8wj2wYrZho6dIP1fBilvsZ5GH8GDnVlwZ4CWVszBRI1uo3DEEOqXhPoM34UUbXqcKF9JOpTOg46Q06e+nk9wRLqWxR5sVbxs5xXOqUTTuiFkS1LDJQgD1zrF/3R5akRDPBttJu8yrsdWQv/e9qa/evL9sEyn6KgGY15nBtmPHLBkKWVRolrjMBRBDR9Oi594+0cqC4FHrDrBDiyUTqU/6WjsnEy4rVNtYFOPMcrKRx+/0eTvoTfaByjg4tKN40ml3dPliLeGlYGYh8ZiJkNSxebIhpXaUIYFZMhIWDOwgpyKHtCU69hwWEsr88akP37LkxMxfnGiYWUFuYmNNOFf2nAynjYU24rEYcZEWGRUar3Mz6knNclIs6ZyaNL+azoHyZjwHM0k1RTeIO4tKAutYvQIqs47mQbudwdAukjlR5iPE8QUiA+RBenSCU4HCC0DZEc4KQqeqBHVwGod+ACQ0Os4ly9v0+oi2y1C31HoiM7tPRXc+qOfsjC9puqE1Els+KG2tafwldLpPKUUsXXSpjsK6BT0zq2ScnVux0F7Noxg2T6POXdW7MVmlOdSJT2yfb9fr9ewAQc20shBHRGbW4qymQh+Vxe4iZEDKX0so+jBshZp/UnC4TPvDYXv6gZGQ6dEZ259VMl7jUPEmCVEVgRxh9jVKh1bav68n7Bk4ndU9Yl7osihiuS8kCC3XqckBpOKK3x0RVPmPHu7Tir37ZQMjHg5Xp5j/VdNWm1wSs/nkz8CHQwA+l9rGw+lzKYtT5deCRMnYdSw83x5Yh94XP6RIGDNJ4ZJ7KPStYdDNmsrpWTxeQk/CtLgBZCwZ4fZ1V85s/wO/QXwLYQIgbUfXddWh/7tdK/1Em4eXerrKetb3DuKdoDaMzUZhrUJ5HlQ8Nvt6kk5+60Y2rQTER0u3xgjUq9PXHclsi0q4c6fIbcHLTLi+sFS4+qpXcrryuvH+A/007fUgSX3iDHUtjPqEThHyIVprrBCEHvpC0E4QIJqkMhFydIDSByl0Q+lUDId8j47cCQXtat0S7nJEk5ulroEta+qQRasoRodW5Nt/rEVg9cY5uq1hh8YpTbEvYBjG2zxZNJxpwTxNMaiu6YV/FxR1JDBcZQ6Muq31QNqH9nWlQ41yqhQWENHGv72Eycz2O0oCCjT1X+SrufEcZ7svnKgvQ3Jl5G1dzqvblyIViGahlsaEK89UzjKBMRN5/af5t1SzqmjOMWlolQvqbft72T0fA659Sxt6JstP/QHxXR2tP/nUM9V6Y55Z4DBBC4hPfWQ6g0RMJSyg+asaDn0njcCYJW2TfSTXxUUO8KrQaYctOSRm20IPQ2gKMz8sRuDQclydhBQQbcFpM5t5ETMs/+NBMWO3R2XikuHmV6kOZrbNhTafQz2MnenYRBJsBYk+gi3OXoNTkrCVUa39HXRodsxlejkPhGAncYvKU5h/XOWvcH0zYXQUx3FBBI+R3Mk86p6tFWouuSmHmyjCPnWKx/DGavWO/XMGSs6wHciUfK6D1Ymt56hfGJtsThHak7AShwLIYpxOELgvMCULb8dkFoV+QCQkFy5PoFhsFoC2Imu3z/NAoj6SYwsZ/cTwBoym+4zmmTNji2IUp8gpDuq+m+mn3J6JXzTHqLPn7CO3fbdSMbq+crPv0qjCrezIhj6RSY2bDMZ8Z/co21HO+Qx4kJ6cGOocstUlXitnwrWjQRQY1H/vVI326lf3sMdaVP1KsihqwwdLZmmNYbtqu6syfWBFF7jRwMdt2EzdLXzr70fUozTq0v7I18v8CSgnUzuXnwMQAAAAASUVORK5CYII=;imageBorder=default;" parent="1" vertex="1">
          <mxGeometry x="430" y="510" width="140" height="40" as="geometry" />
        </mxCell>
        <mxCell id="pbFzUUPsV5RpCnLdQWag-7" value="&lt;div&gt;&lt;font style=&quot;font-size: 18px;&quot;&gt;Recon. Loss&lt;/font&gt;&lt;/div&gt;" style="rounded=0;whiteSpace=wrap;html=1;fillColor=#fff2cc;strokeColor=#d6b656;" parent="1" vertex="1">
          <mxGeometry x="120" y="510" width="140" height="40" as="geometry" />
        </mxCell>
        <mxCell id="pbFzUUPsV5RpCnLdQWag-10" value="&lt;font style=&quot;font-size: 18px;&quot;&gt;Cycle Loss&lt;font style=&quot;font-size: 18px;&quot;&gt;&lt;br&gt;&lt;/font&gt;&lt;/font&gt;" style="rounded=0;whiteSpace=wrap;html=1;fillColor=#fff2cc;strokeColor=#d6b656;" parent="1" vertex="1">
          <mxGeometry x="120" y="570" width="140" height="40" as="geometry" />
        </mxCell>
        <mxCell id="pbFzUUPsV5RpCnLdQWag-2" value="" style="shape=image;verticalLabelPosition=bottom;labelBackgroundColor=default;verticalAlign=top;imageAspect=0;image=data:image/png,iVBORw0KGgoAAAANSUhEUgAAASAAAABgCAYAAAC9rK9YAAALZ0lEQVR4Xu2deYhOXxjHz0SEse9LSdZkCTEoYkIToixDJAkZlN3IFkMSoxhKGGsjyZYwMsYuUZYQWaehEGMfE2Lw8xy/c5vlvPPee89953nvvN/zjzv3Pc/z3PfzPL7dc99zz4n687cJNBAAARBgIBAFAWKgjpAgAAKSAAQIhQACIMBGAALEhh6BQQAEIECoARAAATYCECA29AgMAiAAAUINgAAIsBGAALGhR2AQAAEIEGoABECAjQAEiA09AoMACECAUAMgAAJsBCBAbOgRGARAAAKEGgABEGAjAAFiQ4/AIAACECDUAAiAABsBCBAbegQGARCAAKEGQAAE2AhAgNjQIzAIgAAECDUAAiDARgACxIYegUEABCBAqAEQAAE2AhAgNvQIDAIgAAFCDYAACLARgACxoUdgEAABCBBqAARAgI0ABIgNPU/gqKgo24HnzZsnkpOTbfdHRxBwSgAC5JSYz/tDgHyewDJ2+RCgMpbQYF8HAhSMED4vTQIQIBe0W7ZsKa2ePn3qwrr0TP5uu10s2OTJk4ud2717t8jPzy92HkOw0stVpEaCALnIvJ8FSPd1q1atKvLy8iBALmoBJmYEIEAu+EGAXECDCQhoCECAXJSFToDq1Kkjypcvb9vb169fRW5urrZ/5cqV5flq1arZ9kcdX79+Xai/bgiGOyBHSNE5xAQgQC4A6wSIngc1b97ctretW7eKhIQEbX969kLN6U/gRR8wQ4BspwMdmQhAgFyAhwC5gAYTEMAQzJsagAB5wxFeQAB3QC5qAALkAhpMQAB3QN7UAATIG47wAgK4A3JRAxAgF9BgAgK4A/KmBiBA3nCEFxDAHZCLGoAAuYAGExDAHZA3NbBu3Trp6P3795ZDmrtTu3Zt2wFCMQ9o4cKFheKvXr3a1vXgVQxbmNApBARwBxQCqHZchkKA7MTV9XEqQPTe2JYtW6SrU6dOiaysLHn86tUrUbNmTXncuHFj0bdvX3k8duxY0alTJ7eX59ju7t270ub48ePy38zMTPHy5Ut5/ObNG/Hr1y95XLduXVGvXj15HBMTI+Li4uRxbGysqFSpkuO4MHBOAALknJknFhAgTzBqnUCAQsfWa88QIK+J2vTnRwFKS0uT327WrFniw4cPNr+pEPSKyLhx42T/bdu2iYoVK9q2tdvx3r17suvs2bPFmTNn7Jpp+zVo0EAkJSXJzyZOnCjKlStn5A/GgQlAgJiqw28CRM+9EhMTJS2775jp0A4YMEAO26g5WRytpDRt2rRJCg81Nbwq2L9WrVpi6NCh8lTr1q0tQXn+/LlIT0+X57Ozs7UhevXqZQ3lqlevzlQtZTcsBIgptxAgCBBT6YVVWAgQUzr8IkA9e/aUhIYNG2aR6tatm3VH0bRpU2tZEXr2cvHiRdnvwYMHAcmmpqbKzyZNmmREXw2Tli9frvWj7opWrVoV9KHynj17xMyZM6Wfz58/F/LXsWNH+ff58+eth+xGFw5jiwAEiKkY/CBAU6ZMsYYoNOVg586dktbo0aMDUvvx44f8bNq0aWLHjh3afm3atAkqUsHScvDgQREfH6/ttnLlSnl+yZIlwdwU+vzq1avy7379+glar6loGz9+vKDla9G8IwAB8o6lI08QoJLvkoLBhAAFI+SPzyFATHnygwDRXJhv375JQvQffsSIEY5oqXk1GRkZWrvbt28LNbyx61jN52nfvr34+PFjMTN6aHzp0iW77rT9aMgW6O7p9OnT0qZ///5GMWD8jwAEiKkS/CBAhGbQoEGS0IkTJxyTOnTokLQZOXKk1pZ+ktft0lFSIBoWUiNbXbty5YpQz60cX/D/BjT8op/iqX358qWQG5qkSO3s2bNu3cOuAAEIEFM5QID+iQgEiKkAwyQsBIgpEX4RIDV8ovk7TltOTo40qV+/vtZ0xowZIiUlxbZbmvzYpEkT2V8NDZUxze+h9vDhQ9v+SuqoJk7u3bu3UDc1d+nx48eiRYsWnsSKZCcQIKbs+0GAoqOjrecsTnb8KIqUJvDpdgAZNWqU2L9/v+0MbNy40fqpvKgRzc6mtn79etv+SuqofsELNFVgxYoVYunSpZ7EimQnECCm7EOAhIAAMRVfGIWFADElww8C1L17d6Hmxphgatu2rXZi4sCBA615Rnb8Dx8+XBw5ckTb9cCBA/J8oAfedvwX7HPr1i35Z5cuXbSmTq/dafxI6Q8BYsq0HwSIltEo+gzEDa6uXbuKGzduFDPt06ePnF1st9EvU7Schq7duXNHnu7QoYNddyX2e/funfycluzQNdqI8u3bt57EimQnECCm7EOAhIAAMRVfGIWFADElww8CNHXqVLF582ZjQr179xaXL192fQeklv4oacXJT58+Sf9evbH++/dv6a9ChQraN+zpM1qAjVrDhg2NGUWqAwgQU+b9IEBz584VavlZE0y0MuKFCxdcCxBte01NrcVtci1e2no97PPy2vziCwLElCkIkP0hGASIqUhLISwEqBQg60L4QYBoof3k5GRjQqZ3QNevX5fXQMuAhFM7d+6cvBy19nU4XZtfrgUCxJQpCJD9O6Br167JLPXo0SNgtmjpVGperbJopyxoyRFqpbngvp3r8lMfCBBTtiBAECCm0gursBAgpnRAgOwL0KNHj2SW1EJmupR9//5dng7FgvdMJRIRYSFATGmGAEGAmEovrMJCgJjSAQGyL0BqxrHaRFCXMjVz2cnutEypR9gCBCBATOUAAbIvQGpSIG2vU3TBeJU+NUxr1aoVU0YR1g0BCJAbah7YQIAgQB6Uke9dQICYUggBsi9AKkW0POzJkye1GTt69Kg8rzYgZEorwjokAAFyCMyr7hAg5wK0du1asWDBAm0K1N5gy5Yt8ypFlp/58+fL4xcvXljnaDVEtf2P5wEjyCEEiCnZECAIEFPphVVYCBBTOiBAzgWI3j5v1qyZzJjaAFGlr3PnzvLw5s2bnmaUHm7r5h8tWrRI0PY9aGYEIEBm/FxbQ4CcCxDBnjBhgmQeaIdSN3uNlZTExMRE7ftwtA017U2GZkYAAmTGz7U1BAgC5Lp4ypAhBIgpmRAgdwKUnZ0tM0Y7qhbdNJDO077umZmZxlm9f/++9EHrYufl5Vn+1K9s6lc340AR7gACxFQAECB3AqTStW/fPkFrVusaDZuorVmzxlV2actnWseaWlZWluWjSpUq1jMmtQ+ZqwAwsghAgJiKAQIEAWIqvbAKCwEKUTrUzp1z5szRRqBbfN06yWp4Qf8GWv9m8eLF1g6hTi9fbdxHO3uqtn37dpGfn1/MFQ1zCl4DxaWmdifVxVbfie5QVDt27Ji1fnJBm0aNGokhQ4ZYpwYPHiyP1X70wb6bmvuTlJSk7RofHy/Pb9iwIei6zX/+/LE2SaTvqYZ6ZK/WGEpLSwt41xXsWvG5ngAEKESVod5ZqlGjhucRTH7pUav36dZoDnahFLegQOr6050dtYSEhGDuin3udjJhamqqmD59uvT38+fPYn5pV9fY2Fh5PiYmRqiXWmmxe/UOGf18r44LOqBF6Xft2iVPjRkzxvF3gkHJBCBAIaoQCBAEKESlVabcQoBClE4IUOkJEKVQDSlpguDhw4eNsxoXFyd9pKSkCLxhb4wzoAMIUOjYwjMTgSdPnsjI6enp8t+MjAzx7NkzeZyTkyNyc3PlcXR0tKAlPqi1a9fOWvSe9qynd73QQk8AAhR6xohQygQgQKUM3CAcBMgAHkxBAATMCECAzPjBGgRAwIAABMgAHkxBAATMCECAzPjBGgRAwIAABMgAHkxBAATMCECAzPjBGgRAwIAABMgAHkxBAATMCECAzPjBGgRAwIAABMgAHkxBAATMCECAzPjBGgRAwIAABMgAHkxBAATMCECAzPjBGgRAwIDAf5t700pvikS2AAAAAElFTkSuQmCC;imageBorder=default;rounded=0;" parent="1" vertex="1">
          <mxGeometry x="-90" y="240" width="140" height="40" as="geometry" />
        </mxCell>
        <mxCell id="pbFzUUPsV5RpCnLdQWag-4" value="" style="shape=image;verticalLabelPosition=bottom;labelBackgroundColor=default;verticalAlign=top;imageAspect=0;image=data:image/png,iVBORw0KGgoAAAANSUhEUgAAASEAAABfCAYAAACnQnEeAAARfUlEQVR4Xu1defRVUxQ+mTIXWmSehUgyl4WEZEqGRaYMWSVThszCYhkKRclMhFKZMmWIzDKsiMwkY1iGFEUlfcdvX+fdd8+75953e/fde7/9T69399nn3O+c9/3OsM/ejeYvEEUhAkSACKSEQCOSUErIs1oiQAQ0AiQhDgQiQARSRYAklCr8rJwIEAGSEMcAESACqSJAEkoVflZOBIgASYhjgAgQgVQRIAmlCj8rJwJEgCTEMUAEiECqCJCEUoWflRMBIkAS4hggAkQgVQRIQqnCz8qJABEgCXEMEAEikCoCJKFU4WflRIAIkIQ4BogAEUgVAZJQqvCzciJABEhCHANEgAikigBJKFX4WTkRIAIkIY4BIkAEUkWAJJQq/KycCBABkhDHABEgAqkiQBJKFX5WTgSIAEmIY4AIEIFUESAJpQo/KycCRIAkVKdjoFGjRk4tO/PMM7Ve//79nfSpRATqDQGSUL31SEN7SEJ12jFsVuIIkIQShzQZgyShZHCklfpHgCRUp31EEqrTjmGzEkcglyTUvn17DdT48eOdAXvnnXfUFlts4azvqti1a1etOmLECGuRjTfeWD/78MMPPZ3jjz++RH/o0KH6/3Pnzi35nntCrj1BvXpFgCTU0DP1RkL+AbPccsvpr2bOnEkSSvnX9Ndff5X9MUCTMHtdeumlU25d9qonCZGEsjdqU24xSSjZDsglCV199dUapTfffFONHDnSitixxx6rFllkEf28b9++as0110wW3QXWbrnlFq8tEydO1J/ffvttr559993XWwZeeuml1vo5E0q8a2IbPOaYY5Qsj00j66yzjpoyZUpsu0UtmEsSks78/fffVZMmTax9O23aNLXKKqvUrO9PPPFEXdeQIUO8Or/66isn8iMJ1aybQisiCYVCFEmBJEQSijRgqKwUSSjZUZBrEgJUTZs21YhNnz69DDksi9q0aZMsohWs7bHHHvrpM888o5Zcckn9+c8//9QbmmHCmVAYQrV7ThJKFuvck9Dmm2+uEXv//ffLkBszZozCnkytZL311tNVYd9A2jVp0iSn6klCTjDVRIkklCzMJCGSULIjqgDWSELJdnLuSWjvvffWiD3xxBNlyN14442qZ8+eySJqsfb33397PiTz5s1TBx54oNYcPXq0U/2cCTnBVBMlklCyMOeehIRkbr755jLkLrjgAlXpWDxJqD/66CO1ySabeCbPOecc/fmKK65wqoYk5ARTTZRIQsnCTBKq4JuTJNQkoSTRTNcWSShZ/HNPQpdffrlG7Pzzzy9DDoPpjjvuSBZRi7VHH31U7bffft5TqRdtcBHOhFxQqo0OSShZnHNPQsOGDdOIHXXUUWXI7b777urpp59OFlGLtWuvvVadccYZ3tOXX35Zf27Xrp1T/VFJSO6Y3XTTTWrs2LG6js8//1z/+91336kVVlhBf1599dWVXPg9/PDD1ZZbbunUnrhKn376qS767LPPep7j7777rvrmm2/093ClmD9/vv6MNjZr1kx/3mqrrVTbtm31Z+ynrbjiinGbUHU5klDVEJYYIAmRhEhCEX9TJKGIgIWo556EXnjhBQ3BLrvsUgbFpptuqiZPnhyKqJysyUmbFJArH7j+ESYnnHCCwqxE5IcfftAfV1555bCi+nmUmRBmf71799blfvnlFyf7UILT5JFHHqn1ceetcePGzmVtit9++62688479WP8+8UXX1RtEzfVce8PguW2YFON4ZNPPlkXHzx4cDVmqir722+/6fKVrhpVVUGdFs49CcmgX3/99cu6AJ0tHV+pf2QZhSVVkGCZI46INju77babGjdunDfIXOo1bbmQkFzcPeuss7wlTdxxB+9uWca5eHTb6tlhhx3U66+/HvhYLg9jWdyiRQuts9Zaa3l98tlnn3l/JN57771AGxtssIF65JFH9DP8UYkrJKG4yFVfjiTU8NeHJFSKAEmo+h9XVAucCUVFLCP6cBKE4K6WbHiaTZcN3GWWWcb6RhJx0XbFAsufI444oiIia6+9tsKNecjWW2+tw4xEkbCZEDZtDzjgAM/ktttuqz937txZoW4IogpA8B6yTDWjOfrbc+utt+qvunfvHqWpJbq2mVDHjh2VzCxdZjA4XTz99NO1bcyQTMHsCQJMXZe3/he677779FfPP/986LsCO9lgN5WXXXZZdeihh4aWtylcf/31+tFSSy0V20YWC+Z+JiSdsuqqq6qgvZuPP/5Yq2y00UaB/ffjjz+q5s2b62dBJIbvsd9jhucwDSEAFgT7GP/884/+fNhhh6l777030nixkVCPHj20nccff1z9/PPP+jOO/8N+DELOvXr1UrfffntgW4LCzkZq9AJlPwnttNNO2gQu8S6xxBKRzOGyLwQnZfC78kuXLl3Ugw8+GMlmHGVuTMdBzV6GJEQSIglF/E2RhCICFqJeGBLabrvt1BtvvFEGx3PPPae/E18Zv8Lw4cP1zKWStGrVSsHXJUg++OAD/XXLli29xxdffLG66KKLIvWkbSYkU/dZs2apUaNGaZsHHXRQJNt77rmn1n/qqacCy1UTf9ucCWGDW5aka6yxRqQ2msoIwQK7kDlz5niPYF+iVy6MpAVSEUkodtcFFiwMCeGH+cADD5SBIM6Mtj2d4447LtSrGqc8v/76q7a9/PLLl9QhJzf777+/9z2WYmHE5m+ojYRED+4Djz32WKzRIZdoDz744MDyOK73Z/9wrcgkoR133FG99NJLrkUr6u266676uX8PpxbZR0hCiXTh/388Fuxz/OeemnMhCdk7mCQUbfCThKLhFaZdmJkQTlYGDBhQhseVV16pvzv77LMDsULw8qlTp+pniy22WGCqFzyT6x/weTFFfHf69OnjfY1THJyQRZGwmRCWUhK5MYpd6GLzHWKLt33KKaeo6667LqpZrY/lkZzKYQkW5K8VxzDaBBk0aFBJcWxaQ9566604Zp3KkIScYHJWKgwJgYDkiNdER5zU5HhUnskx8IYbbuipw0vXduEV+zwQ/16PnF5J1g3owB8kqlesjYRwLAzBchAkWY2gTUIYpp1DDjmkYvLGauqMW1a8z3EyaYqcuMmpZFz7lcqRhJJFlSTU4K5PEvrvugBJKPwHRhIKxyiKRmFICJvSQadG4uDn37QO+kv7yiuveP43X3/9dQnOshTynzCZG6jiSCf3xqJ0lG0mtP3222szr732WhRzgbpwGgxyXtxrr720H1I9yV133aWbc/TRRwc2C2SaxJ2yIOMkoWRHQmFICMfzOKb3i3znv98khAVyMpc8Muj9zoZyKoZlkdyJQl2SUBGhKnA6BIlzQmQjIYTfgNxzzz1Vj4xtttkmcC8Fl39dPImjNADLJUk+gH2j77//XhcHefhTXQfZFSdTW7tc87lFabPokoTioGYvQxJqICaSkFIkIbcfF0nIDSdXrcKQEP7SrrbaamW4iNOcubzC9QoJpoWZDZYjECxJJFa1LUA+nBbhvAiBA6HcSYMnhERRjBPN0TYTko1Z27UR14EAPVypCJqlJTUTwmxU2okZpsuMJ0r7Td0vv/zSuzMX14atHEkoWUQLQ0IgAUk4KPemAOWiiy6qEcXyQD7jeBezApFrrrlGf8TpmuyZ2C5dmhk8sNyQ/GIoL0HtJch9lK60kZCEGRFXgCg2/brwGh8/fnyZiWpIaPbs2eqkk07SNkG+tXJLIwlVMxJqW5YkRBLyRhxJyO3Hx5mQG06uWoUhIQBiZkD1A4QIgLJcu+qqq5Q5W5H7SK1bt/aK4aTrp59+KsMZkQnvvvtu/f1DDz1UEl5DTuDMkBuuHRUWyqN///6upqx6SZKQ+OkguL8tjrds4CP+N0KOQODMKP1UKbxK2OkYZ0JVD4eaGSgUCUmIV4mlY6KM/QpZgsHrGYHYISuttJJHNmaEQQRbDwobgR+QBJTv169fiSe2xCMyl2iuPZ01Eurbt69+NVteN+Ak10XiBNcnCbmOnPrXIwk19BFJ6L9IAkntCZGE6v/HXy8tLBQJSRD3IJ8aLJ0kpAVSzWBDFQJ/IQmRYXYa7lJJMHl/Z4rPy4UXXqhuu+02/RizqD/++EN/jhM5L0szIdxFk2iOgqMfI4RQsYVPcflxcCbkglI2dApFQpIAURIiml2ELAsSSRBB6UVs+eqxT9SmTZvAXpZlGohKln5wWpRYOnGGRpZICMRrC/1h81CPiglJKCpi9atPEmroG5JQcssxklD9/uDrsWWFIiHbzWt0zLnnnuv5sEh4D3yP6wFB8afh0ChZTP2XPiWwFoKnI9sppEOHDt5md5yBkKWZULdu3bwTQv+7VuMrZdriTCjOKKrPMoUiIVsSQ3QNjoklFCucFZEeGSLpiYO6T5Ihil3REY9pMztHpWD4LkMjSySEvTVbqFhZqiIofTUydOhQXVy80P22eERfDbq1LUsSasCbJJTccowkVNsfcdZrKxQJSRZPmamYnQdfFQlWj6UWSAki0/6gjpZlG5ZyYYIcW6eddlqYmvV5lmZCO++8s3rxxRcD30VmSHGjQIpR8T8SVwDOhGIPrdQLFoqEpk+frgFv2rRpKPAy3cf+hk1effVV/ahdu3ah9hCE3p/LPrSQoZAlErI5cuJ1JHicRLSMgoGpK3nV7r///kATC3M5Zkt+ALcE1EuJhgBJyIIXSeh/YKJeYCUJRfsRFl27UCQknS0ByGbMmGHtf/HpkaBkQYpyGx8zK4TtqCS2UzbXAZilmdB5553nRQzwv5/4D5kxt10xEL25c+d6J5ZTpkyp+Uzo1FNP9WZ0ZuXI8iunoZXeSVIrIZ+bCFJAXXLJJVGhyIV+IUlos8020503efLkwE5EcPtPPvnEuYMRwtUW4U+CzyOF8eKLL+5s06+YJRLC1Q+bN7R4i2N/Lm7mjYEDB4bury3M5dhll12m4A3vF7ybpKqu1NHiTW46ryLOkj9of+zBkrGCJKGADiMJlYISdTlGEqrMAiShUnwKSUKdOnXSKIwdOzZwtCBqIq5ruArS/dim0pIyKMrMKqjeLM2EELhM0jDLiaT/nTB7FP+qxo0bO0EtthCrOygriGlkYc6EkFXXzKhr1it+ZeJn5n8xzH7WXXdd/TVOYUVwyCGprZ3AyJFSIUkoKBeY2acjR45UtpTIQX2Py5jwiA4SMzRslHGDPGkmcclFWOyHmCI/dnMA445cWK53CeMKr26RMWPGBO5pIM4S4gKJ7LPPPvpjpdO+cePGaZ2OHTuqefPmBb56ixYt9Pd4N0kC4FeU94WLgxzHI1aReLHbyB0JAIS4EY4FgmVUEgICbN68uTbl3wu05Z8TwkGiBEk9jvISRhjhhSXyZxJtzJINklBAb5GESkEhCZXiQRJKluIKSULyF9G/uShByxCKQv5CucCNzUjxPZozZ05JEQn3EZSCupJtW2wfl/bg1EVmSDb9sID9leqx/bUPKoNTMNlwNZcffl2ZWbRs2VLhlAmCeN5yeGCGBEHMakn3bLu2YdpHKm+I7STNBVO/ji0NteghBIykk0IIlyeffFI/mjBhQompG264Qf+/V69ecZqRizKFJCEJv+p3RJQfrnl06trLbdu21ar+JIRxB1leSAiYYLkK6d69e2wiAEmJhzr6LewC68ImIYkNBZ8o2z0529iRPHZYXvbp08d1iOVWjyRkdC1JyG2cR5kJkYTKMSUJlWJSSBJy+6lRK2kEsEH98MMPa7M4GZOlybRp05RcqWnSpImSdNn4oyCb4NgYX1hpnat5TywxcSUHMnz4cC+DLVJ9S7B/OLxK8H7cW5RQL7IErab+PJQlCeWhF/kORCDDCJCEMtx5bDoRyAMCJKE89CLfgQhkGAGSUIY7j00nAnlAgCSUh17kOxCBDCNAEspw57HpRCAPCJCE8tCLfAcikGEESEIZ7jw2nQjkAQGSUB56ke9ABDKMAEkow53HphOBPCBAEspDL/IdiECGESAJZbjz2HQikAcE/gVbOMiJstAkMQAAAABJRU5ErkJggg==;imageBorder=default;" parent="1" vertex="1">
          <mxGeometry x="-90" y="280" width="140" height="40" as="geometry" />
        </mxCell>
      </root>
    </mxGraphModel>
  </diagram>
</mxfile>
